<svg width="14" height="8" viewBox="0 0 14 8" fill="none" xmlns="http://www.w3.org/2000/svg">
<path d="M13.7437 4.61829L10.6436 7.71847C10.4727 7.88934 10.2488 7.97477 10.0248 7.97477C9.80088 7.97477 9.57696 7.88934 9.40609 7.71847C9.0644 7.37676 9.0644 6.82275 9.40609 6.48103L11.0126 4.87459H0.875C0.391754 4.87459 0 4.48283 0 3.99959C0 3.51634 0.391754 3.12459 0.875 3.12459H11.0126L9.40609 1.51814C9.0644 1.17643 9.0644 0.622415 9.40609 0.2807C9.74783 -0.0610147 10.3018 -0.0610147 10.6436 0.2807L13.7437 3.38088C14.0854 3.72257 14.0854 4.27661 13.7437 4.61829Z" fill="black"/>
</svg>
