<svg width="88" height="89" viewBox="0 0 88 89" fill="none" xmlns="http://www.w3.org/2000/svg">
<path d="M28.6504 0H87.961V60.0112C87.961 67.6995 84.9425 75.0729 79.5695 80.5094C74.1965 85.9458 66.9092 89 59.3106 89H0V28.9888C0 21.3005 3.01851 13.9271 8.3915 8.49062C13.7645 3.05417 21.0518 0 28.6504 0Z" fill="url(#paint0_linear_2056_102)"/>
<path d="M69.4944 35.0227L63.6138 37.7491L59.4854 39.6636L59.3013 39.7474L53.625 42.3416C53.625 42.3193 53.6158 42.2969 53.6084 42.2746C53.2734 40.8613 52.6272 39.5429 51.7182 38.4177L51.1936 37.2575L56.857 34.6316L61.0462 32.6892L66.9784 29.9386C67.3072 30.4576 67.614 30.9883 67.8986 31.5309L69.4484 34.9519L69.4944 35.0227Z" fill="white"/>
<path d="M70.4535 50.7425C70.0176 52.6191 69.3851 54.4433 68.5669 56.1842L50.1741 53.0071L50.3471 51.9809C51.6888 50.8782 52.7071 49.4254 53.292 47.7795L70.4535 50.7425Z" fill="white"/>
<path d="M37.3009 53.7017L29.8706 59.026L24.5587 62.8326C23.2904 61.4308 22.1707 59.8985 21.218 58.2606L26.5023 54.4727L30.2147 51.8114L34.0542 49.0608L37.3009 53.7017Z" fill="white"/>
<path d="M38.0096 30.3166L35.7125 35.5051L32.348 33.9798L28.0871 32.0486L22.0886 29.3278C23.1819 27.6871 24.4497 26.1727 25.8692 24.8116L32.4142 27.7783L37.4188 30.0503L38.0096 30.3166Z" fill="white"/>
<path d="M64.0868 49.6418C63.1885 53.1716 61.3819 56.3976 58.851 58.9914C56.3201 61.5852 53.1552 63.4543 49.6785 64.4084C46.2017 65.3626 42.5371 65.3676 39.0578 64.4232C35.5784 63.4787 32.4085 61.6184 29.8706 59.0316C28.5464 57.6783 27.413 56.1467 26.5023 54.4801L21.218 58.2681C23.93 62.9444 27.9644 66.6914 32.801 69.0259C37.6375 71.3603 43.0544 72.1751 48.3529 71.3653C53.6515 70.5554 58.5887 68.1579 62.5279 64.4821C66.4671 60.8063 69.2276 56.0207 70.4534 50.7425L64.0868 49.6418Z" fill="white"/>
<path d="M32.4144 27.7783C34.9927 25.8981 37.9695 24.6534 41.1074 24.1435C44.2453 23.6335 47.4576 23.8724 50.4881 24.8411C53.5186 25.8098 56.2835 27.4814 58.5624 29.7228C60.8413 31.9642 62.5711 34.7133 63.614 37.751L69.4946 35.0245C69.4836 34.9966 69.4744 34.9687 69.4633 34.9426L67.9136 31.5215C67.6228 30.9802 67.316 30.4494 66.9933 29.9292C64.6005 26.1283 61.3105 22.9895 57.42 20.7957C53.5295 18.6018 49.1606 17.4219 44.7071 17.3622C40.2536 17.3026 35.8554 18.365 31.9088 20.4538C27.9622 22.5427 24.5913 25.5922 22.0999 29.3277L28.0983 32.0486C29.3196 30.4163 30.7742 28.9771 32.4144 27.7783Z" fill="white"/>
<path d="M24.3324 40.5575C24.5574 39.3875 24.8813 38.2392 25.3006 37.1253L19.4107 34.4547C17.0925 40.3638 16.8907 46.9073 18.8402 52.9512L24.4281 48.9472C23.8273 46.187 23.7947 43.3311 24.3324 40.5575Z" fill="white"/>
<path d="M63.3193 36.9539L59.2645 39.0154L59.0878 39.1067L53.5256 41.9318" fill="black"/>
<path d="M33.7856 49.2061L30.1946 51.7798C29.2856 49.9791 28.7234 48.0199 28.5381 46.0066L30.5406 44.5726L33.7856 49.2061Z" fill="black"/>
<path d="M36.4857 35.965L34.1887 41.1534L29.429 38.9894C30.0763 37.1826 31.0416 35.5093 32.2782 34.0505L36.4857 35.965Z" fill="black"/>
<path d="M59.618 48.8708C58.7508 51.9759 56.9793 54.7446 54.5343 56.8161C52.0893 58.8876 49.0843 60.1659 45.9109 60.4843C42.7375 60.8027 39.5429 60.1464 36.7435 58.6011C33.9441 57.0558 31.6696 54.693 30.2167 51.8207C30.2081 51.8087 30.2013 51.7955 30.1964 51.7816C28.7733 48.95 28.2119 45.7551 28.583 42.6007C28.9542 39.4464 30.2414 36.4742 32.2818 34.0598L32.3499 33.9816C34.2 31.8244 36.5849 30.2051 39.2591 29.2905C41.9334 28.3759 44.8002 28.1991 47.5644 28.7783C50.3286 29.3575 52.8903 30.6717 54.9856 32.5856C57.081 34.4995 58.6342 36.944 59.4855 39.6673L59.3014 39.7492L53.6251 42.3415C53.6251 42.3192 53.6159 42.2968 53.6085 42.2745C53.0793 40.022 51.7666 38.0373 49.9104 36.6834C48.0542 35.3294 45.7785 34.6965 43.4991 34.9004C41.2197 35.1043 39.089 36.1313 37.4963 37.7938C35.9037 39.4562 34.9554 41.6431 34.825 43.9546C34.6946 46.2661 35.3906 48.548 36.7859 50.383C38.1812 52.2181 40.1826 53.4838 42.4242 53.9489C44.6659 54.4139 46.998 54.0472 48.9945 52.9158C50.9909 51.7844 52.5183 49.9639 53.2974 47.7869L59.618 48.8708Z" fill="white"/>
<defs>
<linearGradient id="paint0_linear_2056_102" x1="1.4062" y1="2.21988" x2="131.641" y2="128.552" gradientUnits="userSpaceOnUse">
<stop stop-color="#3B916F"/>
<stop offset="1" stop-color="#096AA5"/>
</linearGradient>
</defs>
</svg>
