<svg width="70" height="70" viewBox="0 0 70 70" fill="none" xmlns="http://www.w3.org/2000/svg">
<path d="M17.5 17.8719V45.9375C17.4996 48.7144 18.5554 51.3875 20.4533 53.4146C22.3512 55.4417 24.9491 56.671 27.72 56.8531L28.4375 56.875H47.7487C47.2964 58.1543 46.4587 59.262 45.3508 60.0455C44.2429 60.829 42.9194 61.2498 41.5625 61.25H26.25C22.769 61.25 19.4306 59.8672 16.9692 57.4058C14.5078 54.9444 13.125 51.606 13.125 48.125V24.0625C13.1243 22.7048 13.5447 21.3803 14.3282 20.2716C15.1118 19.1629 16.22 18.3244 17.5 17.8719ZM50.3125 8.75C52.053 8.75 53.7222 9.4414 54.9529 10.6721C56.1836 11.9028 56.875 13.572 56.875 15.3125V45.9375C56.875 47.678 56.1836 49.3472 54.9529 50.5779C53.7222 51.8086 52.053 52.5 50.3125 52.5H28.4375C26.697 52.5 25.0278 51.8086 23.7971 50.5779C22.5664 49.3472 21.875 47.678 21.875 45.9375V15.3125C21.875 13.572 22.5664 11.9028 23.7971 10.6721C25.0278 9.4414 26.697 8.75 28.4375 8.75H50.3125Z" fill="black"/>
</svg>
