<svg width="88" height="89" viewBox="0 0 88 89" fill="none" xmlns="http://www.w3.org/2000/svg">
<g clip-path="url(#clip0_2056_104)">
<path d="M27.7564 41.2394C25.5166 41.2394 23.7004 43.077 23.7004 45.3434C23.7004 47.6096 25.5167 49.4472 27.7564 49.4472C29.9961 49.4472 31.8124 47.6096 31.8124 45.3434C31.8124 43.077 29.9962 41.2394 27.7564 41.2394Z" fill="black"/>
<path d="M58.5538 49.4473C60.7936 49.4473 62.6097 47.6095 62.6097 45.3433C62.6097 43.077 60.7936 41.2394 58.5538 41.2394C56.314 41.2394 54.4978 43.077 54.4978 45.3433C54.4978 47.6095 56.314 49.4473 58.5538 49.4473Z" fill="black"/>
<path d="M87.96 45.3239C87.96 20.2922 68.2695 0 43.98 0C19.6904 0 0 20.2922 0 45.3239C0 66.1491 13.6295 83.6914 32.1965 89C35.8287 79.9298 38.3437 68.6754 39.4144 57.5562C21.7766 56.7856 8.14291 51.6104 8.14291 45.3433C8.14291 40.9821 14.7464 37.1498 24.7033 34.9634L30.0436 16.618L34.9369 33.4291C36.3947 33.2969 37.8901 33.1988 39.4144 33.1305C40.9096 33.0666 42.4337 33.0324 43.98 33.0324C45.5263 33.0324 47.0504 33.0666 48.5456 33.1305C50.0697 33.1988 51.5651 33.2969 53.023 33.4291L57.9163 16.618L63.2566 34.9634C73.2136 37.1498 79.8172 40.9821 79.8172 45.3433C79.8172 51.6104 66.1834 56.7856 48.5456 57.5562C49.6162 68.6755 52.1312 79.9298 55.7634 89C74.3304 83.6914 87.96 66.1491 87.96 45.3239Z" fill="black"/>
</g>
<defs>
<clipPath id="clip0_2056_104">
<rect width="87.96" height="89" fill="white"/>
</clipPath>
</defs>
</svg>
