<svg width="610" height="611" viewBox="0 0 610 611" fill="none" xmlns="http://www.w3.org/2000/svg">
<mask id="path-1-inside-1_2099_360" fill="white">
<path d="M610 305C610 473.447 473.447 610 305 610C136.553 610 0 473.447 0 305C0 136.553 136.553 0 305 0C473.447 0 610 136.553 610 305ZM131.15 305C131.15 401.015 208.985 478.85 305 478.85C401.015 478.85 478.85 401.015 478.85 305C478.85 208.985 401.015 131.15 305 131.15C208.985 131.15 131.15 208.985 131.15 305Z"/>
</mask>
<path d="M610 305C610 473.447 473.447 610 305 610C136.553 610 0 473.447 0 305C0 136.553 136.553 0 305 0C473.447 0 610 136.553 610 305ZM131.15 305C131.15 401.015 208.985 478.85 305 478.85C401.015 478.85 478.85 401.015 478.85 305C478.85 208.985 401.015 131.15 305 131.15C208.985 131.15 131.15 208.985 131.15 305Z" fill="white" stroke="black" stroke-width="12" mask="url(#path-1-inside-1_2099_360)"/>
<mask id="path-2-inside-2_2099_360" fill="white">
<path d="M16.6168 404.298C0.946617 358.789 -3.73041 310.216 2.96813 262.553C9.66668 214.889 27.5506 169.488 55.1577 130.06C82.7648 90.633 119.311 58.299 161.809 35.7021C204.307 13.1052 251.549 0.887025 299.674 0.0465082L301.964 131.177C274.533 131.656 247.605 138.62 223.381 151.5C199.157 164.38 178.326 182.811 162.59 205.284C146.854 227.758 136.66 253.637 132.842 280.805C129.024 307.973 131.69 335.66 140.622 361.6L16.6168 404.298Z"/>
</mask>
<path d="M16.6168 404.298C0.946617 358.789 -3.73041 310.216 2.96813 262.553C9.66668 214.889 27.5506 169.488 55.1577 130.06C82.7648 90.633 119.311 58.299 161.809 35.7021C204.307 13.1052 251.549 0.887025 299.674 0.0465082L301.964 131.177C274.533 131.656 247.605 138.62 223.381 151.5C199.157 164.38 178.326 182.811 162.59 205.284C146.854 227.758 136.66 253.637 132.842 280.805C129.024 307.973 131.69 335.66 140.622 361.6L16.6168 404.298Z" fill="#4EAFFE" stroke="black" stroke-width="12" mask="url(#path-2-inside-2_2099_360)"/>
<mask id="path-3-inside-3_2099_360" fill="white">
<path d="M267.83 607.727C210.384 600.673 156.131 577.42 111.407 540.684C66.6833 503.947 33.3354 455.244 15.2583 400.262L139.847 359.299C150.151 390.639 169.159 418.4 194.652 439.34C220.145 460.279 251.069 473.534 283.813 477.554L267.83 607.727Z"/>
</mask>
<path d="M267.83 607.727C210.384 600.673 156.131 577.42 111.407 540.684C66.6833 503.947 33.3354 455.244 15.2583 400.262L139.847 359.299C150.151 390.639 169.159 418.4 194.652 439.34C220.145 460.279 251.069 473.534 283.813 477.554L267.83 607.727Z" fill="#2A45A7" stroke="black" stroke-width="12" mask="url(#path-3-inside-3_2099_360)"/>
<mask id="path-4-inside-4_2099_360" fill="white">
<path d="M571.759 452.867C542.118 506.341 497.09 549.672 442.517 577.239C387.945 604.805 326.347 615.334 265.716 607.46L282.608 477.402C317.168 481.891 352.278 475.889 383.385 460.176C414.491 444.463 440.157 419.764 457.053 389.284L571.759 452.867Z"/>
</mask>
<path d="M571.759 452.867C542.118 506.341 497.09 549.672 442.517 577.239C387.945 604.805 326.347 615.334 265.716 607.46L282.608 477.402C317.168 481.891 352.278 475.889 383.385 460.176C414.491 444.463 440.157 419.764 457.053 389.284L571.759 452.867Z" fill="#FECF33" stroke="black" stroke-width="12" mask="url(#path-4-inside-4_2099_360)"/>
<mask id="path-5-inside-5_2099_360" fill="white">
<path d="M607.727 268.83C615.576 332.759 602.985 397.533 571.759 453.867L457.053 390.284C474.852 358.174 482.028 321.253 477.554 284.813L607.727 268.83Z"/>
</mask>
<path d="M607.727 268.83C615.576 332.759 602.985 397.533 571.759 453.867L457.053 390.284C474.852 358.174 482.028 321.253 477.554 284.813L607.727 268.83Z" fill="#F178B6" stroke="black" stroke-width="12" mask="url(#path-5-inside-5_2099_360)"/>
<mask id="path-6-inside-6_2099_360" fill="white">
<path d="M505.098 74.8136C563.645 125.708 600.599 196.999 608.439 274.178L477.96 287.431C473.491 243.439 452.428 202.804 419.056 173.794L505.098 74.8136Z"/>
</mask>
<path d="M505.098 74.8136C563.645 125.708 600.599 196.999 608.439 274.178L477.96 287.431C473.491 243.439 452.428 202.804 419.056 173.794L505.098 74.8136Z" fill="white" stroke="black" stroke-width="12" mask="url(#path-6-inside-6_2099_360)"/>
<mask id="path-7-inside-7_2099_360" fill="white">
<path d="M294.356 0.185796C371.884 -2.52154 447.531 24.4151 505.9 75.5135L419.513 174.193C386.243 145.067 343.124 129.713 298.933 131.256L294.356 0.185796Z"/>
</mask>
<path d="M294.356 0.185796C371.884 -2.52154 447.531 24.4151 505.9 75.5135L419.513 174.193C386.243 145.067 343.124 129.713 298.933 131.256L294.356 0.185796Z" fill="#FCDDEC" stroke="black" stroke-width="12" mask="url(#path-7-inside-7_2099_360)"/>
<mask id="path-8-outside-8_2099_360" maskUnits="userSpaceOnUse" x="189" y="240" width="229" height="79" fill="black">
<rect fill="white" x="189" y="240" width="229" height="79"/>
<path d="M210.69 285.31C208.05 284.41 205.65 283.51 203.49 282.61C201.33 281.65 199.47 280.51 197.91 279.19C196.35 277.87 195.12 276.31 194.22 274.51C193.38 272.65 192.96 270.4 192.96 267.76C192.96 263.68 194.22 260.26 196.74 257.5C199.26 254.68 202.86 252.76 207.54 251.74V244.45C208.08 244.33 208.92 244.18 210.06 244C211.2 243.82 212.37 243.73 213.57 243.73C215.91 243.73 217.74 244.15 219.06 244.99C220.38 245.77 221.04 247.48 221.04 250.12V251.29C224.76 251.77 227.73 252.73 229.95 254.17C232.23 255.61 233.37 257.59 233.37 260.11C233.37 261.67 233.01 263.02 232.29 264.16C231.57 265.24 230.7 266.17 229.68 266.95C228.36 266.11 226.59 265.39 224.37 264.79C222.15 264.13 219.72 263.8 217.08 263.8C214.38 263.8 212.4 264.19 211.14 264.97C209.88 265.69 209.25 266.62 209.25 267.76C209.25 268.66 209.64 269.41 210.42 270.01C211.2 270.55 212.37 271.06 213.93 271.54L218.7 273.07C224.34 274.87 228.66 277.18 231.66 280C234.72 282.76 236.25 286.54 236.25 291.34C236.25 295.42 234.96 298.9 232.38 301.78C229.8 304.6 226.02 306.52 221.04 307.54V314.74C220.5 314.86 219.66 315.01 218.52 315.19C217.38 315.37 216.21 315.46 215.01 315.46C212.67 315.46 210.84 315.04 209.52 314.2C208.2 313.42 207.54 311.71 207.54 309.07V308.17C205.38 307.93 203.4 307.54 201.6 307C199.86 306.46 198.33 305.77 197.01 304.93C195.75 304.09 194.76 303.1 194.04 301.96C193.32 300.82 192.96 299.53 192.96 298.09C192.96 296.35 193.47 294.88 194.49 293.68C195.51 292.42 196.62 291.46 197.82 290.8C199.5 292.12 201.54 293.26 203.94 294.22C206.4 295.18 209.07 295.66 211.95 295.66C214.89 295.66 216.96 295.21 218.16 294.31C219.36 293.41 219.96 292.36 219.96 291.16C219.96 289.96 219.48 289.06 218.52 288.46C217.56 287.8 216.21 287.17 214.47 286.57L210.69 285.31ZM255.639 252.46C256.299 252.34 257.349 252.19 258.789 252.01C260.229 251.77 261.609 251.65 262.929 251.65C264.309 251.65 265.509 251.77 266.529 252.01C267.609 252.19 268.509 252.55 269.229 253.09C269.949 253.63 270.489 254.38 270.849 255.34C271.209 256.3 271.389 257.56 271.389 259.12V292.42C271.389 297.76 269.859 301.78 266.799 304.48C263.739 307.12 259.239 308.44 253.299 308.44C250.179 308.44 247.659 307.96 245.739 307C244.359 306.34 243.339 305.44 242.679 304.3C242.079 303.16 241.779 301.87 241.779 300.43C241.779 299.23 241.929 298.18 242.229 297.28C242.589 296.38 243.009 295.66 243.489 295.12C244.629 295.36 245.589 295.54 246.369 295.66C247.209 295.72 248.109 295.75 249.069 295.75C251.409 295.75 253.089 295.18 254.109 294.04C255.129 292.84 255.639 291.1 255.639 288.82V252.46ZM331.159 286.84C331.159 290.08 330.589 293.05 329.449 295.75C328.369 298.39 326.779 300.67 324.679 302.59C322.579 304.45 320.029 305.89 317.029 306.91C314.029 307.93 310.639 308.44 306.859 308.44C303.079 308.44 299.689 307.93 296.689 306.91C293.689 305.89 291.139 304.45 289.039 302.59C286.939 300.67 285.319 298.39 284.179 295.75C283.099 293.05 282.559 290.08 282.559 286.84V252.46C283.219 252.34 284.269 252.19 285.709 252.01C287.149 251.77 288.529 251.65 289.849 251.65C291.229 251.65 292.429 251.77 293.449 252.01C294.529 252.19 295.429 252.55 296.149 253.09C296.869 253.63 297.409 254.38 297.769 255.34C298.129 256.3 298.309 257.56 298.309 259.12V286.57C298.309 289.45 299.089 291.7 300.649 293.32C302.269 294.94 304.339 295.75 306.859 295.75C309.439 295.75 311.509 294.94 313.069 293.32C314.629 291.7 315.409 289.45 315.409 286.57V252.46C316.069 252.34 317.119 252.19 318.559 252.01C319.999 251.77 321.379 251.65 322.699 251.65C324.079 251.65 325.279 251.77 326.299 252.01C327.379 252.19 328.279 252.55 328.999 253.09C329.719 253.63 330.259 254.38 330.619 255.34C330.979 256.3 331.159 257.56 331.159 259.12V286.84ZM357.894 295.75C358.734 295.99 359.814 296.17 361.134 296.29C362.454 296.35 363.714 296.38 364.914 296.38C367.314 296.38 369.294 295.9 370.854 294.94C372.474 293.92 373.284 292.36 373.284 290.26C373.284 288.28 372.624 286.87 371.304 286.03C369.984 285.19 367.974 284.77 365.274 284.77H357.894V295.75ZM357.894 273.79H364.464C367.044 273.79 368.904 273.31 370.044 272.35C371.244 271.39 371.844 269.98 371.844 268.12C371.844 266.5 371.154 265.21 369.774 264.25C368.454 263.29 366.444 262.81 363.744 262.81C362.844 262.81 361.794 262.84 360.594 262.9C359.454 262.96 358.554 263.05 357.894 263.17V273.79ZM363.744 308.44C362.724 308.44 361.524 308.41 360.144 308.35C358.764 308.29 357.324 308.17 355.824 307.99C354.384 307.81 352.944 307.57 351.504 307.27C350.064 307.03 348.744 306.67 347.544 306.19C344.244 304.93 342.594 302.74 342.594 299.62V257.59C342.594 256.33 342.924 255.37 343.584 254.71C344.304 253.99 345.264 253.42 346.464 253C348.504 252.28 351.054 251.77 354.114 251.47C357.174 251.11 360.324 250.93 363.564 250.93C371.244 250.93 377.154 252.22 381.294 254.8C385.434 257.38 387.504 261.37 387.504 266.77C387.504 269.47 386.724 271.81 385.164 273.79C383.604 275.71 381.504 277.12 378.864 278.02C381.864 278.86 384.354 280.39 386.334 282.61C388.374 284.83 389.394 287.62 389.394 290.98C389.394 296.92 387.174 301.33 382.734 304.21C378.354 307.03 372.024 308.44 363.744 308.44ZM414.067 306.64C413.407 306.82 412.357 307 410.917 307.18C409.537 307.36 408.157 307.45 406.777 307.45C405.397 307.45 404.167 307.33 403.087 307.09C402.067 306.91 401.197 306.55 400.477 306.01C399.757 305.47 399.217 304.72 398.857 303.76C398.497 302.8 398.317 301.54 398.317 299.98V252.46C398.977 252.34 400.027 252.19 401.467 252.01C402.907 251.77 404.287 251.65 405.607 251.65C406.987 251.65 408.187 251.77 409.207 252.01C410.287 252.19 411.187 252.55 411.907 253.09C412.627 253.63 413.167 254.38 413.527 255.34C413.887 256.3 414.067 257.56 414.067 259.12V306.64Z"/>
</mask>
<path d="M210.69 285.31C208.05 284.41 205.65 283.51 203.49 282.61C201.33 281.65 199.47 280.51 197.91 279.19C196.35 277.87 195.12 276.31 194.22 274.51C193.38 272.65 192.96 270.4 192.96 267.76C192.96 263.68 194.22 260.26 196.74 257.5C199.26 254.68 202.86 252.76 207.54 251.74V244.45C208.08 244.33 208.92 244.18 210.06 244C211.2 243.82 212.37 243.73 213.57 243.73C215.91 243.73 217.74 244.15 219.06 244.99C220.38 245.77 221.04 247.48 221.04 250.12V251.29C224.76 251.77 227.73 252.73 229.95 254.17C232.23 255.61 233.37 257.59 233.37 260.11C233.37 261.67 233.01 263.02 232.29 264.16C231.57 265.24 230.7 266.17 229.68 266.95C228.36 266.11 226.59 265.39 224.37 264.79C222.15 264.13 219.72 263.8 217.08 263.8C214.38 263.8 212.4 264.19 211.14 264.97C209.88 265.69 209.25 266.62 209.25 267.76C209.25 268.66 209.64 269.41 210.42 270.01C211.2 270.55 212.37 271.06 213.93 271.54L218.7 273.07C224.34 274.87 228.66 277.18 231.66 280C234.72 282.76 236.25 286.54 236.25 291.34C236.25 295.42 234.96 298.9 232.38 301.78C229.8 304.6 226.02 306.52 221.04 307.54V314.74C220.5 314.86 219.66 315.01 218.52 315.19C217.38 315.37 216.21 315.46 215.01 315.46C212.67 315.46 210.84 315.04 209.52 314.2C208.2 313.42 207.54 311.71 207.54 309.07V308.17C205.38 307.93 203.4 307.54 201.6 307C199.86 306.46 198.33 305.77 197.01 304.93C195.75 304.09 194.76 303.1 194.04 301.96C193.32 300.82 192.96 299.53 192.96 298.09C192.96 296.35 193.47 294.88 194.49 293.68C195.51 292.42 196.62 291.46 197.82 290.8C199.5 292.12 201.54 293.26 203.94 294.22C206.4 295.18 209.07 295.66 211.95 295.66C214.89 295.66 216.96 295.21 218.16 294.31C219.36 293.41 219.96 292.36 219.96 291.16C219.96 289.96 219.48 289.06 218.52 288.46C217.56 287.8 216.21 287.17 214.47 286.57L210.69 285.31ZM255.639 252.46C256.299 252.34 257.349 252.19 258.789 252.01C260.229 251.77 261.609 251.65 262.929 251.65C264.309 251.65 265.509 251.77 266.529 252.01C267.609 252.19 268.509 252.55 269.229 253.09C269.949 253.63 270.489 254.38 270.849 255.34C271.209 256.3 271.389 257.56 271.389 259.12V292.42C271.389 297.76 269.859 301.78 266.799 304.48C263.739 307.12 259.239 308.44 253.299 308.44C250.179 308.44 247.659 307.96 245.739 307C244.359 306.34 243.339 305.44 242.679 304.3C242.079 303.16 241.779 301.87 241.779 300.43C241.779 299.23 241.929 298.18 242.229 297.28C242.589 296.38 243.009 295.66 243.489 295.12C244.629 295.36 245.589 295.54 246.369 295.66C247.209 295.72 248.109 295.75 249.069 295.75C251.409 295.75 253.089 295.18 254.109 294.04C255.129 292.84 255.639 291.1 255.639 288.82V252.46ZM331.159 286.84C331.159 290.08 330.589 293.05 329.449 295.75C328.369 298.39 326.779 300.67 324.679 302.59C322.579 304.45 320.029 305.89 317.029 306.91C314.029 307.93 310.639 308.44 306.859 308.44C303.079 308.44 299.689 307.93 296.689 306.91C293.689 305.89 291.139 304.45 289.039 302.59C286.939 300.67 285.319 298.39 284.179 295.75C283.099 293.05 282.559 290.08 282.559 286.84V252.46C283.219 252.34 284.269 252.19 285.709 252.01C287.149 251.77 288.529 251.65 289.849 251.65C291.229 251.65 292.429 251.77 293.449 252.01C294.529 252.19 295.429 252.55 296.149 253.09C296.869 253.63 297.409 254.38 297.769 255.34C298.129 256.3 298.309 257.56 298.309 259.12V286.57C298.309 289.45 299.089 291.7 300.649 293.32C302.269 294.94 304.339 295.75 306.859 295.75C309.439 295.75 311.509 294.94 313.069 293.32C314.629 291.7 315.409 289.45 315.409 286.57V252.46C316.069 252.34 317.119 252.19 318.559 252.01C319.999 251.77 321.379 251.65 322.699 251.65C324.079 251.65 325.279 251.77 326.299 252.01C327.379 252.19 328.279 252.55 328.999 253.09C329.719 253.63 330.259 254.38 330.619 255.34C330.979 256.3 331.159 257.56 331.159 259.12V286.84ZM357.894 295.75C358.734 295.99 359.814 296.17 361.134 296.29C362.454 296.35 363.714 296.38 364.914 296.38C367.314 296.38 369.294 295.9 370.854 294.94C372.474 293.92 373.284 292.36 373.284 290.26C373.284 288.28 372.624 286.87 371.304 286.03C369.984 285.19 367.974 284.77 365.274 284.77H357.894V295.75ZM357.894 273.79H364.464C367.044 273.79 368.904 273.31 370.044 272.35C371.244 271.39 371.844 269.98 371.844 268.12C371.844 266.5 371.154 265.21 369.774 264.25C368.454 263.29 366.444 262.81 363.744 262.81C362.844 262.81 361.794 262.84 360.594 262.9C359.454 262.96 358.554 263.05 357.894 263.17V273.79ZM363.744 308.44C362.724 308.44 361.524 308.41 360.144 308.35C358.764 308.29 357.324 308.17 355.824 307.99C354.384 307.81 352.944 307.57 351.504 307.27C350.064 307.03 348.744 306.67 347.544 306.19C344.244 304.93 342.594 302.74 342.594 299.62V257.59C342.594 256.33 342.924 255.37 343.584 254.71C344.304 253.99 345.264 253.42 346.464 253C348.504 252.28 351.054 251.77 354.114 251.47C357.174 251.11 360.324 250.93 363.564 250.93C371.244 250.93 377.154 252.22 381.294 254.8C385.434 257.38 387.504 261.37 387.504 266.77C387.504 269.47 386.724 271.81 385.164 273.79C383.604 275.71 381.504 277.12 378.864 278.02C381.864 278.86 384.354 280.39 386.334 282.61C388.374 284.83 389.394 287.62 389.394 290.98C389.394 296.92 387.174 301.33 382.734 304.21C378.354 307.03 372.024 308.44 363.744 308.44ZM414.067 306.64C413.407 306.82 412.357 307 410.917 307.18C409.537 307.36 408.157 307.45 406.777 307.45C405.397 307.45 404.167 307.33 403.087 307.09C402.067 306.91 401.197 306.55 400.477 306.01C399.757 305.47 399.217 304.72 398.857 303.76C398.497 302.8 398.317 301.54 398.317 299.98V252.46C398.977 252.34 400.027 252.19 401.467 252.01C402.907 251.77 404.287 251.65 405.607 251.65C406.987 251.65 408.187 251.77 409.207 252.01C410.287 252.19 411.187 252.55 411.907 253.09C412.627 253.63 413.167 254.38 413.527 255.34C413.887 256.3 414.067 257.56 414.067 259.12V306.64Z" fill="#4EAFFE"/>
<path d="M210.69 285.31L209.722 288.15L209.732 288.153L209.741 288.156L210.69 285.31ZM203.49 282.61L202.272 285.351L202.304 285.366L202.336 285.379L203.49 282.61ZM197.91 279.19L199.848 276.9L199.848 276.9L197.91 279.19ZM194.22 274.51L191.486 275.745L191.51 275.799L191.537 275.852L194.22 274.51ZM196.74 257.5L198.955 259.523L198.966 259.511L198.977 259.499L196.74 257.5ZM207.54 251.74L208.179 254.671L210.54 254.157V251.74H207.54ZM207.54 244.45L206.889 241.521L204.54 242.043V244.45H207.54ZM210.06 244L209.592 241.037L209.592 241.037L210.06 244ZM219.06 244.99L217.449 247.521L217.491 247.548L217.534 247.573L219.06 244.99ZM221.04 251.29H218.04V253.928L220.656 254.265L221.04 251.29ZM229.95 254.17L228.317 256.687L228.333 256.697L228.348 256.706L229.95 254.17ZM232.29 264.16L234.786 265.824L234.807 265.793L234.826 265.762L232.29 264.16ZM229.68 266.95L228.069 269.481L229.838 270.606L231.502 269.333L229.68 266.95ZM224.37 264.79L223.515 267.666L223.551 267.676L223.587 267.686L224.37 264.79ZM211.14 264.97L212.628 267.575L212.674 267.549L212.719 267.521L211.14 264.97ZM210.42 270.01L208.591 272.388L208.651 272.434L208.712 272.477L210.42 270.01ZM213.93 271.54L214.846 268.683L214.829 268.678L214.812 268.673L213.93 271.54ZM218.7 273.07L217.784 275.927L217.788 275.928L218.7 273.07ZM231.66 280L229.605 282.186L229.628 282.207L229.651 282.228L231.66 280ZM232.38 301.78L234.593 303.805L234.604 303.793L234.615 303.782L232.38 301.78ZM221.04 307.54L220.438 304.601L218.04 305.092V307.54H221.04ZM221.04 314.74L221.691 317.669L224.04 317.147V314.74H221.04ZM209.52 314.2L211.131 311.669L211.089 311.642L211.046 311.617L209.52 314.2ZM207.54 308.17H210.54V305.485L207.871 305.188L207.54 308.17ZM201.6 307L200.711 309.865L200.724 309.869L200.738 309.873L201.6 307ZM197.01 304.93L195.346 307.426L195.372 307.444L195.399 307.461L197.01 304.93ZM194.04 301.96L191.504 303.562L191.504 303.562L194.04 301.96ZM194.49 293.68L196.776 295.623L196.799 295.596L196.822 295.568L194.49 293.68ZM197.82 290.8L199.673 288.441L198.113 287.215L196.374 288.171L197.82 290.8ZM203.94 294.22L202.826 297.005L202.838 297.01L202.849 297.015L203.94 294.22ZM218.16 294.31L216.36 291.91L216.36 291.91L218.16 294.31ZM218.52 288.46L216.82 290.932L216.874 290.969L216.93 291.004L218.52 288.46ZM214.47 286.57L215.448 283.734L215.433 283.729L215.419 283.724L214.47 286.57ZM211.658 282.47C209.069 281.588 206.732 280.711 204.644 279.841L202.336 285.379C204.568 286.309 207.031 287.232 209.722 288.15L211.658 282.47ZM204.708 279.869C202.769 279.006 201.16 278.01 199.848 276.9L195.972 281.48C197.78 283.01 199.891 284.294 202.272 285.351L204.708 279.869ZM199.848 276.9C198.593 275.838 197.619 274.599 196.903 273.168L191.537 275.852C192.621 278.021 194.107 279.902 195.972 281.48L199.848 276.9ZM196.954 273.275C196.333 271.899 195.96 270.094 195.96 267.76H189.96C189.96 270.706 190.427 273.401 191.486 275.745L196.954 273.275ZM195.96 267.76C195.96 264.354 196.988 261.677 198.955 259.523L194.525 255.477C191.452 258.843 189.96 263.006 189.96 267.76H195.96ZM198.977 259.499C200.975 257.263 203.951 255.593 208.179 254.671L206.901 248.809C201.769 249.927 197.545 252.097 194.503 255.501L198.977 259.499ZM210.54 251.74V244.45H204.54V251.74H210.54ZM208.191 247.379C208.635 247.28 209.398 247.142 210.528 246.963L209.592 241.037C208.442 241.218 207.525 241.38 206.889 241.521L208.191 247.379ZM210.528 246.963C211.507 246.809 212.52 246.73 213.57 246.73V240.73C212.22 240.73 210.893 240.831 209.592 241.037L210.528 246.963ZM213.57 246.73C215.604 246.73 216.794 247.104 217.449 247.521L220.671 242.459C218.686 241.196 216.216 240.73 213.57 240.73V246.73ZM217.534 247.573C217.537 247.574 217.55 247.581 217.578 247.617C217.61 247.657 217.674 247.752 217.746 247.938C217.898 248.332 218.04 249.02 218.04 250.12H224.04C224.04 247.199 223.335 244.031 220.586 242.407L217.534 247.573ZM218.04 250.12V251.29H224.04V250.12H218.04ZM220.656 254.265C224.104 254.71 226.597 255.571 228.317 256.687L231.583 251.653C228.863 249.889 225.416 248.83 221.424 248.315L220.656 254.265ZM228.348 256.706C229.831 257.643 230.37 258.703 230.37 260.11H236.37C236.37 256.477 234.629 253.577 231.552 251.634L228.348 256.706ZM230.37 260.11C230.37 261.194 230.126 261.969 229.754 262.558L234.826 265.762C235.894 264.071 236.37 262.146 236.37 260.11H230.37ZM229.794 262.496C229.255 263.304 228.612 263.99 227.858 264.567L231.502 269.333C232.788 268.35 233.885 267.176 234.786 265.824L229.794 262.496ZM231.291 264.419C229.625 263.359 227.541 262.54 225.153 261.894L223.587 267.686C225.639 268.24 227.095 268.861 228.069 269.481L231.291 264.419ZM225.225 261.914C222.692 261.161 219.97 260.8 217.08 260.8V266.8C219.47 266.8 221.608 267.099 223.515 267.666L225.225 261.914ZM217.08 260.8C214.215 260.8 211.545 261.191 209.561 262.419L212.719 267.521C213.255 267.189 214.545 266.8 217.08 266.8V260.8ZM209.652 262.365C207.753 263.45 206.25 265.241 206.25 267.76H212.25C212.25 267.755 212.25 267.779 212.238 267.818C212.226 267.858 212.211 267.883 212.206 267.89C212.201 267.899 212.284 267.771 212.628 267.575L209.652 262.365ZM206.25 267.76C206.25 269.687 207.152 271.281 208.591 272.388L212.249 267.632C212.198 267.593 212.177 267.569 212.175 267.567C212.174 267.566 212.187 267.581 212.204 267.613C212.221 267.646 212.235 267.683 212.243 267.717C212.251 267.75 212.25 267.767 212.25 267.76H206.25ZM208.712 272.477C209.864 273.274 211.373 273.892 213.048 274.407L214.812 268.673C213.367 268.228 212.536 267.826 212.128 267.543L208.712 272.477ZM213.014 274.397L217.784 275.927L219.616 270.213L214.846 268.683L213.014 274.397ZM217.788 275.928C223.175 277.647 227.042 279.776 229.605 282.186L233.715 277.814C230.278 274.584 225.505 272.093 219.612 270.212L217.788 275.928ZM229.651 282.228C231.974 284.323 233.25 287.236 233.25 291.34H239.25C239.25 285.844 237.466 281.197 233.669 277.772L229.651 282.228ZM233.25 291.34C233.25 294.726 232.204 297.481 230.145 299.778L234.615 303.782C237.716 300.319 239.25 296.114 239.25 291.34H233.25ZM230.167 299.755C228.135 301.976 225.001 303.667 220.438 304.601L221.642 310.479C227.039 309.373 231.465 307.224 234.593 303.805L230.167 299.755ZM218.04 307.54V314.74H224.04V307.54H218.04ZM220.389 311.811C219.945 311.91 219.182 312.048 218.052 312.227L218.988 318.153C220.138 317.972 221.055 317.81 221.691 317.669L220.389 311.811ZM218.052 312.227C217.073 312.381 216.06 312.46 215.01 312.46V318.46C216.36 318.46 217.687 318.359 218.988 318.153L218.052 312.227ZM215.01 312.46C212.976 312.46 211.786 312.086 211.131 311.669L207.909 316.731C209.894 317.994 212.364 318.46 215.01 318.46V312.46ZM211.046 311.617C211.043 311.616 211.03 311.609 211.002 311.573C210.97 311.533 210.906 311.438 210.834 311.252C210.682 310.858 210.54 310.17 210.54 309.07H204.54C204.54 311.991 205.245 315.159 207.994 316.783L211.046 311.617ZM210.54 309.07V308.17H204.54V309.07H210.54ZM207.871 305.188C205.864 304.965 204.064 304.607 202.462 304.127L200.738 309.873C202.736 310.473 204.896 310.895 207.209 311.152L207.871 305.188ZM202.489 304.135C200.963 303.661 199.683 303.075 198.621 302.399L195.399 307.461C196.977 308.465 198.757 309.259 200.711 309.865L202.489 304.135ZM198.674 302.434C197.721 301.799 197.045 301.101 196.576 300.358L191.504 303.562C192.475 305.099 193.779 306.381 195.346 307.426L198.674 302.434ZM196.576 300.358C196.18 299.73 195.96 299.003 195.96 298.09H189.96C189.96 300.057 190.46 301.91 191.504 303.562L196.576 300.358ZM195.96 298.09C195.96 296.982 196.266 296.223 196.776 295.623L192.204 291.737C190.674 293.537 189.96 295.718 189.96 298.09H195.96ZM196.822 295.568C197.641 294.555 198.463 293.87 199.266 293.429L196.374 288.171C194.777 289.05 193.379 290.285 192.158 291.792L196.822 295.568ZM195.967 293.159C197.913 294.688 200.214 295.961 202.826 297.005L205.054 291.435C202.866 290.559 201.087 289.552 199.673 288.441L195.967 293.159ZM202.849 297.015C205.687 298.122 208.731 298.66 211.95 298.66V292.66C209.409 292.66 207.113 292.238 205.031 291.425L202.849 297.015ZM211.95 298.66C215.013 298.66 217.937 298.227 219.96 296.71L216.36 291.91C215.983 292.193 214.767 292.66 211.95 292.66V298.66ZM219.96 296.71C221.706 295.401 222.96 293.539 222.96 291.16H216.96C216.96 291.234 216.948 291.284 216.905 291.359C216.851 291.454 216.709 291.648 216.36 291.91L219.96 296.71ZM222.96 291.16C222.96 289.001 222.009 287.103 220.11 285.916L216.93 291.004C216.979 291.034 216.992 291.05 216.986 291.044C216.979 291.036 216.965 291.02 216.953 290.997C216.941 290.975 216.941 290.967 216.945 290.985C216.95 291.005 216.96 291.06 216.96 291.16H222.96ZM220.22 285.988C218.946 285.113 217.314 284.377 215.448 283.734L213.492 289.406C215.106 289.963 216.174 290.487 216.82 290.932L220.22 285.988ZM215.419 283.724L211.639 282.464L209.741 288.156L213.521 289.416L215.419 283.724ZM255.639 252.46L255.102 249.508L252.639 249.956V252.46H255.639ZM258.789 252.01L259.161 254.987L259.222 254.979L259.282 254.969L258.789 252.01ZM266.529 252.01L265.842 254.93L265.938 254.953L266.035 254.969L266.529 252.01ZM269.229 253.09L267.429 255.49L267.429 255.49L269.229 253.09ZM270.849 255.34L268.04 256.393L268.04 256.393L270.849 255.34ZM266.799 304.48L268.758 306.751L268.771 306.741L268.784 306.73L266.799 304.48ZM245.739 307L247.08 304.317L247.057 304.305L247.033 304.294L245.739 307ZM242.679 304.3L240.024 305.697L240.052 305.751L240.082 305.803L242.679 304.3ZM242.229 297.28L239.443 296.166L239.411 296.248L239.383 296.331L242.229 297.28ZM243.489 295.12L244.107 292.184L242.403 291.826L241.246 293.127L243.489 295.12ZM246.369 295.66L245.912 298.625L246.033 298.644L246.155 298.652L246.369 295.66ZM254.109 294.04L256.344 296.04L256.37 296.012L256.394 295.983L254.109 294.04ZM256.175 255.412C256.748 255.307 257.728 255.166 259.161 254.987L258.417 249.033C256.969 249.214 255.849 249.372 255.102 249.508L256.175 255.412ZM259.282 254.969C260.576 254.754 261.79 254.65 262.929 254.65V248.65C261.427 248.65 259.882 248.786 258.295 249.051L259.282 254.969ZM262.929 254.65C264.146 254.65 265.105 254.757 265.842 254.93L267.216 249.09C265.913 248.783 264.472 248.65 262.929 248.65V254.65ZM266.035 254.969C266.743 255.087 267.168 255.294 267.429 255.49L271.029 250.69C269.85 249.806 268.475 249.293 267.022 249.051L266.035 254.969ZM267.429 255.49C267.629 255.641 267.852 255.893 268.04 256.393L273.658 254.287C273.125 252.867 272.268 251.619 271.029 250.69L267.429 255.49ZM268.04 256.393C268.225 256.889 268.389 257.752 268.389 259.12H274.389C274.389 257.368 274.192 255.711 273.658 254.287L268.04 256.393ZM268.389 259.12V292.42H274.389V259.12H268.389ZM268.389 292.42C268.389 297.181 267.044 300.263 264.814 302.23L268.784 306.73C272.674 303.297 274.389 298.339 274.389 292.42H268.389ZM264.839 302.209C262.53 304.201 258.849 305.44 253.299 305.44V311.44C259.629 311.44 264.947 310.039 268.758 306.751L264.839 302.209ZM253.299 305.44C250.449 305.44 248.438 304.996 247.08 304.317L244.397 309.683C246.879 310.924 249.909 311.44 253.299 311.44V305.44ZM247.033 304.294C246.108 303.851 245.586 303.333 245.275 302.797L240.082 305.803C241.092 307.547 242.609 308.829 244.444 309.706L247.033 304.294ZM245.333 302.903C244.986 302.242 244.779 301.441 244.779 300.43H238.779C238.779 302.299 239.172 304.078 240.024 305.697L245.333 302.903ZM244.779 300.43C244.779 299.471 244.9 298.754 245.075 298.229L239.383 296.331C238.958 297.606 238.779 298.989 238.779 300.43H244.779ZM245.014 298.394C245.286 297.713 245.545 297.322 245.731 297.113L241.246 293.127C240.472 293.998 239.891 295.047 239.443 296.166L245.014 298.394ZM242.871 298.056C244.042 298.302 245.059 298.494 245.912 298.625L246.825 292.695C246.118 292.586 245.216 292.418 244.107 292.184L242.871 298.056ZM246.155 298.652C247.075 298.718 248.047 298.75 249.069 298.75V292.75C248.17 292.75 247.342 292.722 246.582 292.668L246.155 298.652ZM249.069 298.75C251.811 298.75 254.511 298.089 256.344 296.04L251.873 292.04C251.666 292.271 251.006 292.75 249.069 292.75V298.75ZM256.394 295.983C258.044 294.043 258.639 291.5 258.639 288.82H252.639C252.639 290.7 252.214 291.637 251.823 292.097L256.394 295.983ZM258.639 288.82V252.46H252.639V288.82H258.639ZM329.449 295.75L326.685 294.583L326.678 294.599L326.672 294.614L329.449 295.75ZM324.679 302.59L326.668 304.836L326.685 304.82L326.703 304.804L324.679 302.59ZM317.029 306.91L317.994 309.75L317.029 306.91ZM296.689 306.91L295.723 309.75L295.723 309.75L296.689 306.91ZM289.039 302.59L287.014 304.804L287.032 304.82L287.049 304.836L289.039 302.59ZM284.179 295.75L281.393 296.864L281.408 296.902L281.424 296.939L284.179 295.75ZM282.559 252.46L282.022 249.508L279.559 249.956V252.46H282.559ZM285.709 252.01L286.081 254.987L286.141 254.979L286.202 254.969L285.709 252.01ZM293.449 252.01L292.761 254.93L292.858 254.953L292.955 254.969L293.449 252.01ZM296.149 253.09L297.949 250.69L297.949 250.69L296.149 253.09ZM297.769 255.34L294.96 256.393L294.96 256.393L297.769 255.34ZM300.649 293.32L298.488 295.401L298.507 295.421L298.527 295.441L300.649 293.32ZM313.069 293.32L310.908 291.239L310.908 291.239L313.069 293.32ZM315.409 252.46L314.872 249.508L312.409 249.956V252.46H315.409ZM318.559 252.01L318.931 254.987L318.991 254.979L319.052 254.969L318.559 252.01ZM326.299 252.01L325.611 254.93L325.708 254.953L325.805 254.969L326.299 252.01ZM328.999 253.09L327.199 255.49L327.199 255.49L328.999 253.09ZM330.619 255.34L327.81 256.393L327.81 256.393L330.619 255.34ZM328.159 286.84C328.159 289.722 327.653 292.29 326.685 294.583L332.212 296.917C333.524 293.81 334.159 290.438 334.159 286.84H328.159ZM326.672 294.614C325.759 296.845 324.426 298.756 322.654 300.376L326.703 304.804C329.131 302.584 330.978 299.935 332.225 296.886L326.672 294.614ZM322.689 300.344C320.924 301.908 318.734 303.161 316.063 304.07L317.994 309.75C321.323 308.619 324.233 306.992 326.668 304.836L322.689 300.344ZM316.063 304.07C313.427 304.966 310.372 305.44 306.859 305.44V311.44C310.905 311.44 314.63 310.894 317.994 309.75L316.063 304.07ZM306.859 305.44C303.345 305.44 300.29 304.966 297.654 304.07L295.723 309.75C299.087 310.894 302.812 311.44 306.859 311.44V305.44ZM297.654 304.07C294.983 303.161 292.793 301.908 291.028 300.344L287.049 304.836C289.484 306.992 292.394 308.619 295.723 309.75L297.654 304.07ZM291.063 300.376C289.279 298.745 287.906 296.816 286.933 294.561L281.424 296.939C282.731 299.964 284.598 302.595 287.014 304.804L291.063 300.376ZM286.964 294.636C286.041 292.328 285.559 289.742 285.559 286.84H279.559C279.559 290.418 280.156 293.772 281.393 296.864L286.964 294.636ZM285.559 286.84V252.46H279.559V286.84H285.559ZM283.095 255.412C283.668 255.307 284.648 255.166 286.081 254.987L285.336 249.033C283.889 249.214 282.769 249.372 282.022 249.508L283.095 255.412ZM286.202 254.969C287.496 254.754 288.71 254.65 289.849 254.65V248.65C288.347 248.65 286.801 248.786 285.215 249.051L286.202 254.969ZM289.849 254.65C291.065 254.65 292.025 254.757 292.761 254.93L294.136 249.09C292.832 248.783 291.392 248.65 289.849 248.65V254.65ZM292.955 254.969C293.663 255.087 294.088 255.294 294.349 255.49L297.949 250.69C296.769 249.806 295.394 249.293 293.942 249.051L292.955 254.969ZM294.349 255.49C294.549 255.641 294.772 255.893 294.96 256.393L300.578 254.287C300.045 252.867 299.188 251.619 297.949 250.69L294.349 255.49ZM294.96 256.393C295.145 256.889 295.309 257.752 295.309 259.12H301.309C301.309 257.368 301.112 255.711 300.578 254.287L294.96 256.393ZM295.309 259.12V286.57H301.309V259.12H295.309ZM295.309 286.57C295.309 289.999 296.25 293.077 298.488 295.401L302.809 291.239C301.927 290.323 301.309 288.901 301.309 286.57H295.309ZM298.527 295.441C300.769 297.683 303.63 298.75 306.859 298.75V292.75C305.047 292.75 303.768 292.197 302.77 291.199L298.527 295.441ZM306.859 298.75C310.123 298.75 313.019 297.696 315.229 295.401L310.908 291.239C309.998 292.184 308.754 292.75 306.859 292.75V298.75ZM315.229 295.401C317.467 293.077 318.409 289.999 318.409 286.57H312.409C312.409 288.901 311.79 290.323 310.908 291.239L315.229 295.401ZM318.409 286.57V252.46H312.409V286.57H318.409ZM315.945 255.412C316.518 255.307 317.498 255.166 318.931 254.987L318.186 249.033C316.739 249.214 315.619 249.372 314.872 249.508L315.945 255.412ZM319.052 254.969C320.346 254.754 321.56 254.65 322.699 254.65V248.65C321.197 248.65 319.651 248.786 318.065 249.051L319.052 254.969ZM322.699 254.65C323.915 254.65 324.875 254.757 325.611 254.93L326.986 249.09C325.682 248.783 324.242 248.65 322.699 248.65V254.65ZM325.805 254.969C326.513 255.087 326.938 255.294 327.199 255.49L330.799 250.69C329.619 249.806 328.244 249.293 326.792 249.051L325.805 254.969ZM327.199 255.49C327.399 255.641 327.622 255.893 327.81 256.393L333.428 254.287C332.895 252.867 332.038 251.619 330.799 250.69L327.199 255.49ZM327.81 256.393C327.995 256.889 328.159 257.752 328.159 259.12H334.159C334.159 257.368 333.962 255.711 333.428 254.287L327.81 256.393ZM328.159 259.12V286.84H334.159V259.12H328.159ZM357.894 295.75H354.894V298.013L357.07 298.635L357.894 295.75ZM361.134 296.29L360.863 299.278L360.93 299.284L360.998 299.287L361.134 296.29ZM370.854 294.94L372.426 297.495L372.44 297.487L372.453 297.479L370.854 294.94ZM371.304 286.03L369.694 288.561L369.694 288.561L371.304 286.03ZM357.894 284.77V281.77H354.894V284.77H357.894ZM357.894 273.79H354.894V276.79H357.894V273.79ZM370.044 272.35L368.17 270.007L368.141 270.031L368.112 270.055L370.044 272.35ZM369.774 264.25L368.01 266.676L368.035 266.695L368.061 266.713L369.774 264.25ZM360.594 262.9L360.444 259.904L360.436 259.904L360.594 262.9ZM357.894 263.17L357.357 260.218L354.894 260.666V263.17H357.894ZM355.824 307.99L355.452 310.967L355.459 310.968L355.467 310.969L355.824 307.99ZM351.504 307.27L352.116 304.333L352.057 304.321L351.997 304.311L351.504 307.27ZM347.544 306.19L348.658 303.405L348.636 303.396L348.614 303.387L347.544 306.19ZM343.584 254.71L345.705 256.831L345.705 256.831L343.584 254.71ZM346.464 253L347.455 255.832L347.463 255.829L346.464 253ZM354.114 251.47L354.407 254.456L354.436 254.453L354.465 254.449L354.114 251.47ZM381.294 254.8L382.881 252.254L382.881 252.254L381.294 254.8ZM385.164 273.79L387.492 275.682L387.507 275.664L387.521 275.647L385.164 273.79ZM378.864 278.02L377.896 275.18L368.742 278.301L378.055 280.909L378.864 278.02ZM386.334 282.61L384.095 284.607L384.11 284.623L384.125 284.64L386.334 282.61ZM382.734 304.21L384.358 306.732L384.367 306.727L382.734 304.21ZM357.07 298.635C358.158 298.945 359.441 299.148 360.863 299.278L361.406 293.302C360.187 293.192 359.311 293.035 358.718 292.865L357.07 298.635ZM360.998 299.287C362.359 299.349 363.664 299.38 364.914 299.38V293.38C363.764 293.38 362.549 293.351 361.27 293.293L360.998 299.287ZM364.914 299.38C367.701 299.38 370.268 298.823 372.426 297.495L369.282 292.385C368.32 292.977 366.927 293.38 364.914 293.38V299.38ZM372.453 297.479C375.041 295.849 376.284 293.272 376.284 290.26H370.284C370.284 291.448 369.907 291.991 369.256 292.401L372.453 297.479ZM376.284 290.26C376.284 287.564 375.333 285.038 372.915 283.499L369.694 288.561C369.915 288.702 370.284 288.996 370.284 290.26H376.284ZM372.915 283.499C370.878 282.203 368.18 281.77 365.274 281.77V287.77C367.768 287.77 369.09 288.177 369.694 288.561L372.915 283.499ZM365.274 281.77H357.894V287.77H365.274V281.77ZM354.894 284.77V295.75H360.894V284.77H354.894ZM357.894 276.79H364.464V270.79H357.894V276.79ZM364.464 276.79C367.282 276.79 370.021 276.291 371.977 274.645L368.112 270.055C367.787 270.329 366.806 270.79 364.464 270.79V276.79ZM371.918 274.693C373.981 273.043 374.844 270.679 374.844 268.12H368.844C368.844 269.281 368.508 269.737 368.17 270.007L371.918 274.693ZM374.844 268.12C374.844 265.475 373.637 263.283 371.487 261.787L368.061 266.713C368.671 267.137 368.844 267.525 368.844 268.12H374.844ZM371.539 261.824C369.468 260.318 366.701 259.81 363.744 259.81V265.81C366.188 265.81 367.441 266.262 368.01 266.676L371.539 261.824ZM363.744 259.81C362.781 259.81 361.679 259.842 360.444 259.904L360.744 265.896C361.909 265.838 362.907 265.81 363.744 265.81V259.81ZM360.436 259.904C359.244 259.967 358.2 260.065 357.357 260.218L358.431 266.122C358.909 266.035 359.664 265.953 360.752 265.896L360.436 259.904ZM354.894 263.17V273.79H360.894V263.17H354.894ZM363.744 305.44C362.78 305.44 361.625 305.412 360.274 305.353L360.014 311.347C361.423 311.408 362.669 311.44 363.744 311.44V305.44ZM360.274 305.353C358.977 305.296 357.613 305.183 356.182 305.011L355.467 310.969C357.035 311.157 358.551 311.284 360.014 311.347L360.274 305.353ZM356.196 305.013C354.838 304.843 353.478 304.617 352.116 304.333L350.892 310.207C352.411 310.523 353.931 310.777 355.452 310.967L356.196 305.013ZM351.997 304.311C350.743 304.102 349.634 303.795 348.658 303.405L346.43 308.975C347.854 309.545 349.385 309.958 351.011 310.229L351.997 304.311ZM348.614 303.387C347.341 302.901 346.628 302.329 346.228 301.797C345.848 301.293 345.594 300.623 345.594 299.62H339.594C339.594 301.737 340.166 303.722 341.436 305.408C342.685 307.066 344.447 308.219 346.474 308.993L348.614 303.387ZM345.594 299.62V257.59H339.594V299.62H345.594ZM345.594 257.59C345.594 257.215 345.644 257.001 345.679 256.9C345.709 256.813 345.726 256.811 345.705 256.831L341.463 252.589C340.066 253.986 339.594 255.821 339.594 257.59H345.594ZM345.705 256.831C346.038 256.499 346.577 256.139 347.455 255.832L345.473 250.168C343.951 250.701 342.571 251.481 341.463 252.589L345.705 256.831ZM347.463 255.829C349.201 255.215 351.496 254.741 354.407 254.456L353.821 248.484C350.613 248.799 347.807 249.345 345.466 250.171L347.463 255.829ZM354.465 254.449C357.403 254.104 360.435 253.93 363.564 253.93V247.93C360.213 247.93 356.946 248.116 353.764 248.491L354.465 254.449ZM363.564 253.93C370.978 253.93 376.243 255.187 379.707 257.346L382.881 252.254C378.065 249.253 371.511 247.93 363.564 247.93V253.93ZM379.707 257.346C382.862 259.312 384.504 262.274 384.504 266.77H390.504C390.504 260.466 388.006 255.448 382.881 252.254L379.707 257.346ZM384.504 266.77C384.504 268.848 383.92 270.521 382.808 271.933L387.521 275.647C389.528 273.099 390.504 270.092 390.504 266.77H384.504ZM382.836 271.898C381.675 273.327 380.073 274.439 377.896 275.18L379.832 280.86C382.936 279.801 385.533 278.093 387.492 275.682L382.836 271.898ZM378.055 280.909C380.531 281.602 382.515 282.836 384.095 284.607L388.573 280.613C386.193 277.944 383.198 276.118 379.673 275.131L378.055 280.909ZM384.125 284.64C385.597 286.241 386.394 288.279 386.394 290.98H392.394C392.394 286.961 391.151 283.419 388.543 280.58L384.125 284.64ZM386.394 290.98C386.394 296.05 384.573 299.442 381.102 301.693L384.367 306.727C389.776 303.218 392.394 297.79 392.394 290.98H386.394ZM381.11 301.688C377.422 304.062 371.758 305.44 363.744 305.44V311.44C372.29 311.44 379.286 309.998 384.358 306.732L381.11 301.688ZM414.067 306.64L414.856 309.534L417.067 308.931V306.64H414.067ZM410.917 307.18L410.545 304.203L410.537 304.204L410.529 304.205L410.917 307.18ZM403.087 307.09L403.738 304.161L403.673 304.147L403.608 304.136L403.087 307.09ZM400.477 306.01L398.677 308.41L398.677 308.41L400.477 306.01ZM398.857 303.76L396.048 304.813L396.048 304.813L398.857 303.76ZM398.317 252.46L397.78 249.508L395.317 249.956V252.46H398.317ZM401.467 252.01L401.839 254.987L401.9 254.979L401.96 254.969L401.467 252.01ZM409.207 252.01L408.52 254.93L408.616 254.953L408.714 254.969L409.207 252.01ZM411.907 253.09L410.107 255.49L410.107 255.49L411.907 253.09ZM413.527 255.34L410.718 256.393L410.718 256.393L413.527 255.34ZM413.277 303.746C412.835 303.866 411.964 304.026 410.545 304.203L411.289 310.157C412.75 309.974 413.978 309.774 414.856 309.534L413.277 303.746ZM410.529 304.205C409.276 304.369 408.026 304.45 406.777 304.45V310.45C408.288 310.45 409.797 310.351 411.305 310.155L410.529 304.205ZM406.777 304.45C405.564 304.45 404.559 304.344 403.738 304.161L402.436 310.019C403.775 310.316 405.229 310.45 406.777 310.45V304.45ZM403.608 304.136C402.982 304.025 402.567 303.828 402.277 303.61L398.677 308.41C399.827 309.272 401.152 309.795 402.565 310.044L403.608 304.136ZM402.277 303.61C402.076 303.459 401.854 303.207 401.666 302.707L396.048 304.813C396.58 306.233 397.438 307.481 398.677 308.41L402.277 303.61ZM401.666 302.707C401.48 302.211 401.317 301.348 401.317 299.98H395.317C395.317 301.732 395.514 303.389 396.048 304.813L401.666 302.707ZM401.317 299.98V252.46H395.317V299.98H401.317ZM398.853 255.412C399.426 255.307 400.406 255.166 401.839 254.987L401.095 249.033C399.648 249.214 398.528 249.372 397.78 249.508L398.853 255.412ZM401.96 254.969C403.254 254.754 404.468 254.65 405.607 254.65V248.65C404.105 248.65 402.56 248.786 400.974 249.051L401.96 254.969ZM405.607 254.65C406.824 254.65 407.783 254.757 408.52 254.93L409.894 249.09C408.591 248.783 407.15 248.65 405.607 248.65V254.65ZM408.714 254.969C409.421 255.087 409.846 255.294 410.107 255.49L413.707 250.69C412.528 249.806 411.153 249.293 409.7 249.051L408.714 254.969ZM410.107 255.49C410.308 255.641 410.53 255.893 410.718 256.393L416.336 254.287C415.804 252.867 414.946 251.619 413.707 250.69L410.107 255.49ZM410.718 256.393C410.904 256.889 411.067 257.752 411.067 259.12H417.067C417.067 257.368 416.87 255.711 416.336 254.287L410.718 256.393ZM411.067 259.12V306.64H417.067V259.12H411.067Z" fill="black" mask="url(#path-8-outside-8_2099_360)"/>
<mask id="path-10-outside-9_2099_360" maskUnits="userSpaceOnUse" x="237.5" y="330" width="140" height="42" fill="black">
<rect fill="white" x="237.5" y="330" width="140" height="42"/>
<path d="M249.18 343.024L243.58 344.76C243.02 344.387 242.46 343.864 241.9 343.192C241.34 342.52 241.06 341.587 241.06 340.392C241.06 338.152 242.423 336.584 245.148 335.688L251.42 333.56H253.492C255.097 333.56 256.367 334.027 257.3 334.96C258.233 335.893 258.7 337.163 258.7 338.768V367.944C258.289 368.019 257.673 368.112 256.852 368.224C256.068 368.373 255.265 368.448 254.444 368.448C253.623 368.448 252.876 368.392 252.204 368.28C251.569 368.168 251.028 367.944 250.58 367.608C250.132 367.272 249.777 366.824 249.516 366.264C249.292 365.667 249.18 364.901 249.18 363.968V343.024ZM284.884 350.976C284.884 347.691 284.399 345.152 283.428 343.36C282.495 341.568 281.151 340.672 279.396 340.672C277.642 340.672 276.298 341.568 275.364 343.36C274.468 345.152 274.02 347.691 274.02 350.976C274.02 354.261 274.468 356.819 275.364 358.648C276.298 360.44 277.642 361.336 279.396 361.336C281.151 361.336 282.495 360.44 283.428 358.648C284.399 356.819 284.884 354.261 284.884 350.976ZM294.46 350.976C294.46 353.851 294.087 356.408 293.34 358.648C292.594 360.888 291.548 362.773 290.204 364.304C288.898 365.797 287.311 366.936 285.444 367.72C283.615 368.504 281.618 368.896 279.452 368.896C277.25 368.896 275.215 368.504 273.348 367.72C271.519 366.936 269.932 365.797 268.588 364.304C267.282 362.773 266.255 360.888 265.508 358.648C264.799 356.408 264.444 353.851 264.444 350.976C264.444 348.101 264.799 345.563 265.508 343.36C266.255 341.12 267.282 339.253 268.588 337.76C269.932 336.229 271.519 335.072 273.348 334.288C275.215 333.504 277.25 333.112 279.452 333.112C281.618 333.112 283.615 333.504 285.444 334.288C287.311 335.072 288.898 336.229 290.204 337.76C291.548 339.253 292.594 341.12 293.34 343.36C294.087 345.563 294.46 348.101 294.46 350.976ZM318.845 350.976C318.845 347.691 318.36 345.152 317.389 343.36C316.456 341.568 315.112 340.672 313.357 340.672C311.603 340.672 310.259 341.568 309.325 343.36C308.429 345.152 307.981 347.691 307.981 350.976C307.981 354.261 308.429 356.819 309.325 358.648C310.259 360.44 311.603 361.336 313.357 361.336C315.112 361.336 316.456 360.44 317.389 358.648C318.36 356.819 318.845 354.261 318.845 350.976ZM328.421 350.976C328.421 353.851 328.048 356.408 327.301 358.648C326.555 360.888 325.509 362.773 324.165 364.304C322.859 365.797 321.272 366.936 319.405 367.72C317.576 368.504 315.579 368.896 313.413 368.896C311.211 368.896 309.176 368.504 307.309 367.72C305.48 366.936 303.893 365.797 302.549 364.304C301.243 362.773 300.216 360.888 299.469 358.648C298.76 356.408 298.405 353.851 298.405 350.976C298.405 348.101 298.76 345.563 299.469 343.36C300.216 341.12 301.243 339.253 302.549 337.76C303.893 336.229 305.48 335.072 307.309 334.288C309.176 333.504 311.211 333.112 313.413 333.112C315.579 333.112 317.576 333.504 319.405 334.288C321.272 335.072 322.859 336.229 324.165 337.76C325.509 339.253 326.555 341.12 327.301 343.36C328.048 345.563 328.421 348.101 328.421 350.976ZM360.534 333.448C361.804 333.635 362.924 333.989 363.894 334.512C364.902 334.997 365.444 335.669 365.518 336.528C365.518 337.125 365.369 337.741 365.07 338.376C364.772 339.011 364.38 339.664 363.894 340.336L344.518 368.392C343.324 368.205 342.316 367.869 341.494 367.384C340.71 366.861 340.281 366.171 340.206 365.312C340.206 364.715 340.244 364.136 340.318 363.576C340.43 362.979 340.729 362.307 341.214 361.56L360.534 333.448ZM350.062 342.352C350.062 345.152 349.222 347.336 347.542 348.904C345.862 350.472 343.697 351.256 341.046 351.256C338.358 351.256 336.174 350.472 334.494 348.904C332.852 347.336 332.03 345.152 332.03 342.352C332.03 339.589 332.852 337.424 334.494 335.856C336.174 334.288 338.358 333.504 341.046 333.504C343.697 333.504 345.862 334.288 347.542 335.856C349.222 337.424 350.062 339.589 350.062 342.352ZM338.806 342.352C338.806 343.472 339.012 344.312 339.422 344.872C339.87 345.395 340.412 345.656 341.046 345.656C341.681 345.656 342.204 345.395 342.614 344.872C343.062 344.312 343.286 343.472 343.286 342.352C343.286 341.269 343.062 340.467 342.614 339.944C342.204 339.421 341.681 339.16 341.046 339.16C340.412 339.16 339.87 339.421 339.422 339.944C339.012 340.467 338.806 341.269 338.806 342.352ZM373.526 359.544C373.526 362.344 372.686 364.528 371.006 366.096C369.326 367.664 367.161 368.448 364.51 368.448C361.822 368.448 359.638 367.664 357.958 366.096C356.316 364.528 355.494 362.344 355.494 359.544C355.494 356.781 356.316 354.616 357.958 353.048C359.638 351.48 361.822 350.696 364.51 350.696C367.161 350.696 369.326 351.48 371.006 353.048C372.686 354.616 373.526 356.781 373.526 359.544ZM362.27 359.544C362.27 360.664 362.476 361.504 362.886 362.064C363.334 362.587 363.876 362.848 364.51 362.848C365.145 362.848 365.668 362.587 366.078 362.064C366.526 361.504 366.75 360.664 366.75 359.544C366.75 358.461 366.526 357.659 366.078 357.136C365.668 356.613 365.145 356.352 364.51 356.352C363.876 356.352 363.334 356.613 362.886 357.136C362.476 357.659 362.27 358.461 362.27 359.544Z"/>
</mask>
<path d="M249.18 343.024L243.58 344.76C243.02 344.387 242.46 343.864 241.9 343.192C241.34 342.52 241.06 341.587 241.06 340.392C241.06 338.152 242.423 336.584 245.148 335.688L251.42 333.56H253.492C255.097 333.56 256.367 334.027 257.3 334.96C258.233 335.893 258.7 337.163 258.7 338.768V367.944C258.289 368.019 257.673 368.112 256.852 368.224C256.068 368.373 255.265 368.448 254.444 368.448C253.623 368.448 252.876 368.392 252.204 368.28C251.569 368.168 251.028 367.944 250.58 367.608C250.132 367.272 249.777 366.824 249.516 366.264C249.292 365.667 249.18 364.901 249.18 363.968V343.024ZM284.884 350.976C284.884 347.691 284.399 345.152 283.428 343.36C282.495 341.568 281.151 340.672 279.396 340.672C277.642 340.672 276.298 341.568 275.364 343.36C274.468 345.152 274.02 347.691 274.02 350.976C274.02 354.261 274.468 356.819 275.364 358.648C276.298 360.44 277.642 361.336 279.396 361.336C281.151 361.336 282.495 360.44 283.428 358.648C284.399 356.819 284.884 354.261 284.884 350.976ZM294.46 350.976C294.46 353.851 294.087 356.408 293.34 358.648C292.594 360.888 291.548 362.773 290.204 364.304C288.898 365.797 287.311 366.936 285.444 367.72C283.615 368.504 281.618 368.896 279.452 368.896C277.25 368.896 275.215 368.504 273.348 367.72C271.519 366.936 269.932 365.797 268.588 364.304C267.282 362.773 266.255 360.888 265.508 358.648C264.799 356.408 264.444 353.851 264.444 350.976C264.444 348.101 264.799 345.563 265.508 343.36C266.255 341.12 267.282 339.253 268.588 337.76C269.932 336.229 271.519 335.072 273.348 334.288C275.215 333.504 277.25 333.112 279.452 333.112C281.618 333.112 283.615 333.504 285.444 334.288C287.311 335.072 288.898 336.229 290.204 337.76C291.548 339.253 292.594 341.12 293.34 343.36C294.087 345.563 294.46 348.101 294.46 350.976ZM318.845 350.976C318.845 347.691 318.36 345.152 317.389 343.36C316.456 341.568 315.112 340.672 313.357 340.672C311.603 340.672 310.259 341.568 309.325 343.36C308.429 345.152 307.981 347.691 307.981 350.976C307.981 354.261 308.429 356.819 309.325 358.648C310.259 360.44 311.603 361.336 313.357 361.336C315.112 361.336 316.456 360.44 317.389 358.648C318.36 356.819 318.845 354.261 318.845 350.976ZM328.421 350.976C328.421 353.851 328.048 356.408 327.301 358.648C326.555 360.888 325.509 362.773 324.165 364.304C322.859 365.797 321.272 366.936 319.405 367.72C317.576 368.504 315.579 368.896 313.413 368.896C311.211 368.896 309.176 368.504 307.309 367.72C305.48 366.936 303.893 365.797 302.549 364.304C301.243 362.773 300.216 360.888 299.469 358.648C298.76 356.408 298.405 353.851 298.405 350.976C298.405 348.101 298.76 345.563 299.469 343.36C300.216 341.12 301.243 339.253 302.549 337.76C303.893 336.229 305.48 335.072 307.309 334.288C309.176 333.504 311.211 333.112 313.413 333.112C315.579 333.112 317.576 333.504 319.405 334.288C321.272 335.072 322.859 336.229 324.165 337.76C325.509 339.253 326.555 341.12 327.301 343.36C328.048 345.563 328.421 348.101 328.421 350.976ZM360.534 333.448C361.804 333.635 362.924 333.989 363.894 334.512C364.902 334.997 365.444 335.669 365.518 336.528C365.518 337.125 365.369 337.741 365.07 338.376C364.772 339.011 364.38 339.664 363.894 340.336L344.518 368.392C343.324 368.205 342.316 367.869 341.494 367.384C340.71 366.861 340.281 366.171 340.206 365.312C340.206 364.715 340.244 364.136 340.318 363.576C340.43 362.979 340.729 362.307 341.214 361.56L360.534 333.448ZM350.062 342.352C350.062 345.152 349.222 347.336 347.542 348.904C345.862 350.472 343.697 351.256 341.046 351.256C338.358 351.256 336.174 350.472 334.494 348.904C332.852 347.336 332.03 345.152 332.03 342.352C332.03 339.589 332.852 337.424 334.494 335.856C336.174 334.288 338.358 333.504 341.046 333.504C343.697 333.504 345.862 334.288 347.542 335.856C349.222 337.424 350.062 339.589 350.062 342.352ZM338.806 342.352C338.806 343.472 339.012 344.312 339.422 344.872C339.87 345.395 340.412 345.656 341.046 345.656C341.681 345.656 342.204 345.395 342.614 344.872C343.062 344.312 343.286 343.472 343.286 342.352C343.286 341.269 343.062 340.467 342.614 339.944C342.204 339.421 341.681 339.16 341.046 339.16C340.412 339.16 339.87 339.421 339.422 339.944C339.012 340.467 338.806 341.269 338.806 342.352ZM373.526 359.544C373.526 362.344 372.686 364.528 371.006 366.096C369.326 367.664 367.161 368.448 364.51 368.448C361.822 368.448 359.638 367.664 357.958 366.096C356.316 364.528 355.494 362.344 355.494 359.544C355.494 356.781 356.316 354.616 357.958 353.048C359.638 351.48 361.822 350.696 364.51 350.696C367.161 350.696 369.326 351.48 371.006 353.048C372.686 354.616 373.526 356.781 373.526 359.544ZM362.27 359.544C362.27 360.664 362.476 361.504 362.886 362.064C363.334 362.587 363.876 362.848 364.51 362.848C365.145 362.848 365.668 362.587 366.078 362.064C366.526 361.504 366.75 360.664 366.75 359.544C366.75 358.461 366.526 357.659 366.078 357.136C365.668 356.613 365.145 356.352 364.51 356.352C363.876 356.352 363.334 356.613 362.886 357.136C362.476 357.659 362.27 358.461 362.27 359.544Z" fill="#FECF33"/>
<path d="M249.18 343.024H252.18V338.953L248.292 340.159L249.18 343.024ZM243.58 344.76L241.916 347.256L243.104 348.048L244.468 347.625L243.58 344.76ZM241.9 343.192L239.595 345.113L239.595 345.113L241.9 343.192ZM245.148 335.688L246.085 338.538L246.098 338.533L246.112 338.529L245.148 335.688ZM251.42 333.56V330.56H250.925L250.456 330.719L251.42 333.56ZM257.3 334.96L259.421 332.839L259.421 332.839L257.3 334.96ZM258.7 367.944L259.237 370.896L261.7 370.448V367.944H258.7ZM256.852 368.224L256.447 365.252L256.368 365.262L256.291 365.277L256.852 368.224ZM252.204 368.28L251.683 371.234L251.697 371.237L251.711 371.239L252.204 368.28ZM250.58 367.608L248.78 370.008L250.58 367.608ZM249.516 366.264L246.707 367.317L246.748 367.427L246.797 367.533L249.516 366.264ZM248.292 340.159L242.692 341.895L244.468 347.625L250.068 345.889L248.292 340.159ZM245.244 342.264C244.984 342.09 244.632 341.784 244.205 341.271L239.595 345.113C240.288 345.944 241.056 346.683 241.916 347.256L245.244 342.264ZM244.205 341.271C244.205 341.271 244.205 341.271 244.205 341.271C244.204 341.271 244.204 341.271 244.204 341.271C244.204 341.27 244.203 341.269 244.202 341.267C244.2 341.264 244.196 341.258 244.191 341.248C244.18 341.229 244.163 341.19 244.143 341.126C244.104 340.994 244.06 340.761 244.06 340.392H238.06C238.06 342.032 238.446 343.733 239.595 345.113L244.205 341.271ZM244.06 340.392C244.06 339.934 244.178 339.697 244.346 339.504C244.563 339.255 245.049 338.879 246.085 338.538L244.211 332.838C242.522 333.393 240.964 334.249 239.818 335.568C238.623 336.943 238.06 338.61 238.06 340.392H244.06ZM246.112 338.529L252.384 336.401L250.456 330.719L244.184 332.847L246.112 338.529ZM251.42 336.56H253.492V330.56H251.42V336.56ZM253.492 336.56C254.485 336.56 254.926 336.828 255.179 337.081L259.421 332.839C257.808 331.225 255.71 330.56 253.492 330.56V336.56ZM255.179 337.081C255.432 337.334 255.7 337.775 255.7 338.768H261.7C261.7 336.55 261.035 334.452 259.421 332.839L255.179 337.081ZM255.7 338.768V367.944H261.7V338.768H255.7ZM258.163 364.992C257.82 365.055 257.258 365.141 256.447 365.252L257.257 371.196C258.089 371.083 258.758 370.983 259.237 370.896L258.163 364.992ZM256.291 365.277C255.697 365.39 255.082 365.448 254.444 365.448V371.448C255.448 371.448 256.439 371.357 257.413 371.171L256.291 365.277ZM254.444 365.448C253.756 365.448 253.177 365.401 252.697 365.321L251.711 371.239C252.575 371.383 253.49 371.448 254.444 371.448V365.448ZM252.725 365.326C252.484 365.283 252.398 365.222 252.38 365.208L248.78 370.008C249.658 370.666 250.654 371.053 251.683 371.234L252.725 365.326ZM252.38 365.208C252.366 365.198 252.309 365.156 252.235 364.995L246.797 367.533C247.245 368.492 247.898 369.346 248.78 370.008L252.38 365.208ZM252.325 365.211C252.271 365.068 252.18 364.693 252.18 363.968H246.18C246.18 365.11 246.313 366.266 246.707 367.317L252.325 365.211ZM252.18 363.968V343.024H246.18V363.968H252.18ZM283.428 343.36L280.768 344.746L280.779 344.767L280.79 344.789L283.428 343.36ZM275.364 343.36L272.704 341.974L272.692 341.996L272.681 342.018L275.364 343.36ZM275.364 358.648L272.67 359.968L272.687 360.001L272.704 360.034L275.364 358.648ZM283.428 358.648L280.778 357.242L280.773 357.252L280.768 357.262L283.428 358.648ZM293.34 358.648L290.494 357.699L290.494 357.699L293.34 358.648ZM290.204 364.304L287.95 362.325L287.947 362.328L290.204 364.304ZM285.444 367.72L284.283 364.954L284.273 364.958L284.263 364.963L285.444 367.72ZM273.348 367.72L272.167 370.477L272.177 370.482L272.187 370.486L273.348 367.72ZM268.588 364.304L266.307 366.252L266.332 366.282L266.358 366.311L268.588 364.304ZM265.508 358.648L262.648 359.554L262.655 359.575L262.662 359.597L265.508 358.648ZM265.508 343.36L262.662 342.411L262.657 342.426L262.653 342.44L265.508 343.36ZM268.588 337.76L266.334 335.781L266.331 335.784L268.588 337.76ZM273.348 334.288L272.187 331.522L272.177 331.526L272.167 331.531L273.348 334.288ZM285.444 334.288L284.263 337.045L284.273 337.05L284.283 337.054L285.444 334.288ZM290.204 337.76L287.923 339.708L287.948 339.738L287.974 339.767L290.204 337.76ZM293.34 343.36L290.494 344.309L290.497 344.316L290.499 344.323L293.34 343.36ZM287.884 350.976C287.884 347.465 287.377 344.352 286.066 341.931L280.79 344.789C281.421 345.952 281.884 347.916 281.884 350.976H287.884ZM286.089 341.974C285.447 340.741 284.57 339.638 283.384 338.848C282.177 338.043 280.813 337.672 279.396 337.672V343.672C279.735 343.672 279.92 343.749 280.056 343.84C280.215 343.946 280.477 344.187 280.768 344.746L286.089 341.974ZM279.396 337.672C277.98 337.672 276.616 338.043 275.408 338.848C274.223 339.638 273.346 340.741 272.704 341.974L278.025 344.746C278.316 344.187 278.578 343.946 278.736 343.84C278.873 343.749 279.058 343.672 279.396 343.672V337.672ZM272.681 342.018C271.485 344.411 271.02 347.488 271.02 350.976H277.02C277.02 347.893 277.452 345.893 278.048 344.702L272.681 342.018ZM271.02 350.976C271.02 354.47 271.486 357.551 272.67 359.968L278.059 357.328C277.45 356.087 277.02 354.053 277.02 350.976H271.02ZM272.704 360.034C273.346 361.267 274.223 362.37 275.408 363.16C276.616 363.965 277.98 364.336 279.396 364.336V358.336C279.058 358.336 278.873 358.259 278.736 358.168C278.578 358.062 278.316 357.821 278.025 357.262L272.704 360.034ZM279.396 364.336C280.813 364.336 282.177 363.965 283.384 363.16C284.57 362.37 285.447 361.267 286.089 360.034L280.768 357.262C280.477 357.821 280.215 358.062 280.056 358.168C279.92 358.259 279.735 358.336 279.396 358.336V364.336ZM286.078 360.054C287.375 357.61 287.884 354.493 287.884 350.976H281.884C281.884 354.03 281.423 356.027 280.778 357.242L286.078 360.054ZM291.46 350.976C291.46 353.596 291.12 355.823 290.494 357.699L296.186 359.597C297.054 356.993 297.46 354.105 297.46 350.976H291.46ZM290.494 357.699C289.854 359.62 288.991 361.139 287.95 362.325L292.459 366.283C294.105 364.408 295.333 362.156 296.186 359.597L290.494 357.699ZM287.947 362.328C286.947 363.471 285.737 364.343 284.283 364.954L286.606 370.486C288.885 369.529 290.849 368.123 292.462 366.28L287.947 362.328ZM284.263 364.963C282.838 365.573 281.247 365.896 279.452 365.896V371.896C281.988 371.896 284.392 371.435 286.626 370.477L284.263 364.963ZM279.452 365.896C277.613 365.896 275.978 365.57 274.51 364.954L272.187 370.486C274.452 371.438 276.886 371.896 279.452 371.896V365.896ZM274.53 364.963C273.104 364.352 271.874 363.47 270.818 362.297L266.358 366.311C267.991 368.124 269.934 369.52 272.167 370.477L274.53 364.963ZM270.87 362.356C269.854 361.165 269 359.636 268.354 357.699L262.662 359.597C263.51 362.14 264.71 364.381 266.307 366.252L270.87 362.356ZM268.368 357.742C267.77 355.852 267.444 353.609 267.444 350.976H261.444C261.444 354.092 261.828 356.964 262.648 359.554L268.368 357.742ZM267.444 350.976C267.444 348.341 267.77 346.123 268.364 344.28L262.653 342.44C261.828 345.002 261.444 347.862 261.444 350.976H267.444ZM268.354 344.309C268.999 342.376 269.847 340.878 270.846 339.736L266.331 335.784C264.717 337.629 263.511 339.864 262.662 342.411L268.354 344.309ZM270.843 339.739C271.899 338.537 273.122 337.649 274.53 337.045L272.167 331.531C269.916 332.495 267.966 333.922 266.334 335.781L270.843 339.739ZM274.51 337.054C275.978 336.438 277.613 336.112 279.452 336.112V330.112C276.886 330.112 274.452 330.57 272.187 331.522L274.51 337.054ZM279.452 336.112C281.247 336.112 282.838 336.435 284.263 337.045L286.626 331.531C284.392 330.573 281.988 330.112 279.452 330.112V336.112ZM284.283 337.054C285.72 337.658 286.922 338.536 287.923 339.708L292.486 335.812C290.873 333.923 288.902 332.486 286.606 331.522L284.283 337.054ZM287.974 339.767C288.998 340.905 289.856 342.392 290.494 344.309L296.186 342.411C295.332 339.848 294.098 337.602 292.434 335.753L287.974 339.767ZM290.499 344.323C291.119 346.152 291.46 348.355 291.46 350.976H297.46C297.46 347.848 297.055 344.973 296.182 342.397L290.499 344.323ZM317.389 343.36L314.729 344.746L314.74 344.767L314.751 344.789L317.389 343.36ZM309.325 343.36L306.665 341.974L306.653 341.996L306.642 342.018L309.325 343.36ZM309.325 358.648L306.631 359.968L306.647 360.001L306.665 360.034L309.325 358.648ZM317.389 358.648L314.739 357.242L314.734 357.252L314.729 357.262L317.389 358.648ZM327.301 358.648L324.455 357.699L324.455 357.699L327.301 358.648ZM324.165 364.304L321.911 362.325L321.908 362.328L324.165 364.304ZM319.405 367.72L318.244 364.954L318.234 364.958L318.224 364.963L319.405 367.72ZM307.309 367.72L306.128 370.477L306.138 370.482L306.148 370.486L307.309 367.72ZM302.549 364.304L300.268 366.252L300.293 366.282L300.319 366.311L302.549 364.304ZM299.469 358.648L296.609 359.554L296.616 359.575L296.623 359.597L299.469 358.648ZM299.469 343.36L296.623 342.411L296.618 342.426L296.614 342.44L299.469 343.36ZM302.549 337.76L300.295 335.781L300.292 335.784L302.549 337.76ZM307.309 334.288L306.148 331.522L306.138 331.526L306.128 331.531L307.309 334.288ZM319.405 334.288L318.224 337.045L318.234 337.05L318.244 337.054L319.405 334.288ZM324.165 337.76L321.884 339.708L321.909 339.738L321.935 339.767L324.165 337.76ZM327.301 343.36L324.455 344.309L324.458 344.316L324.46 344.323L327.301 343.36ZM321.845 350.976C321.845 347.465 321.338 344.352 320.027 341.931L314.751 344.789C315.382 345.952 315.845 347.916 315.845 350.976H321.845ZM320.05 341.974C319.408 340.741 318.531 339.638 317.345 338.848C316.138 338.043 314.774 337.672 313.357 337.672V343.672C313.696 343.672 313.881 343.749 314.017 343.84C314.176 343.946 314.438 344.187 314.729 344.746L320.05 341.974ZM313.357 337.672C311.941 337.672 310.577 338.043 309.369 338.848C308.184 339.638 307.307 340.741 306.665 341.974L311.986 344.746C312.277 344.187 312.539 343.946 312.697 343.84C312.834 343.749 313.019 343.672 313.357 343.672V337.672ZM306.642 342.018C305.445 344.411 304.981 347.488 304.981 350.976H310.981C310.981 347.893 311.413 345.893 312.009 344.702L306.642 342.018ZM304.981 350.976C304.981 354.47 305.447 357.551 306.631 359.968L312.02 357.328C311.411 356.087 310.981 354.053 310.981 350.976H304.981ZM306.665 360.034C307.307 361.267 308.184 362.37 309.369 363.16C310.577 363.965 311.941 364.336 313.357 364.336V358.336C313.019 358.336 312.834 358.259 312.697 358.168C312.539 358.062 312.277 357.821 311.986 357.262L306.665 360.034ZM313.357 364.336C314.774 364.336 316.138 363.965 317.345 363.16C318.531 362.37 319.408 361.267 320.05 360.034L314.729 357.262C314.438 357.821 314.176 358.062 314.017 358.168C313.881 358.259 313.696 358.336 313.357 358.336V364.336ZM320.039 360.054C321.336 357.61 321.845 354.493 321.845 350.976H315.845C315.845 354.03 315.384 356.027 314.739 357.242L320.039 360.054ZM325.421 350.976C325.421 353.596 325.081 355.823 324.455 357.699L330.147 359.597C331.015 356.993 331.421 354.105 331.421 350.976H325.421ZM324.455 357.699C323.815 359.62 322.952 361.139 321.911 362.325L326.42 366.283C328.066 364.408 329.294 362.156 330.147 359.597L324.455 357.699ZM321.908 362.328C320.908 363.471 319.698 364.343 318.244 364.954L320.567 370.486C322.846 369.529 324.81 368.123 326.423 366.28L321.908 362.328ZM318.224 364.963C316.799 365.573 315.208 365.896 313.413 365.896V371.896C315.949 371.896 318.353 371.435 320.587 370.477L318.224 364.963ZM313.413 365.896C311.574 365.896 309.939 365.57 308.471 364.954L306.148 370.486C308.413 371.438 310.847 371.896 313.413 371.896V365.896ZM308.491 364.963C307.065 364.352 305.835 363.47 304.779 362.297L300.319 366.311C301.951 368.124 303.895 369.52 306.128 370.477L308.491 364.963ZM304.831 362.356C303.814 361.165 302.961 359.636 302.315 357.699L296.623 359.597C297.471 362.14 298.671 364.381 300.268 366.252L304.831 362.356ZM302.329 357.742C301.731 355.852 301.405 353.609 301.405 350.976H295.405C295.405 354.092 295.789 356.964 296.609 359.554L302.329 357.742ZM301.405 350.976C301.405 348.341 301.731 346.123 302.325 344.28L296.614 342.44C295.789 345.002 295.405 347.862 295.405 350.976H301.405ZM302.315 344.309C302.96 342.376 303.808 340.878 304.807 339.736L300.292 335.784C298.678 337.629 297.472 339.864 296.623 342.411L302.315 344.309ZM304.804 339.739C305.86 338.537 307.083 337.649 308.491 337.045L306.128 331.531C303.877 332.495 301.927 333.922 300.295 335.781L304.804 339.739ZM308.471 337.054C309.939 336.438 311.574 336.112 313.413 336.112V330.112C310.847 330.112 308.413 330.57 306.148 331.522L308.471 337.054ZM313.413 336.112C315.208 336.112 316.799 336.435 318.224 337.045L320.587 331.531C318.353 330.573 315.949 330.112 313.413 330.112V336.112ZM318.244 337.054C319.681 337.658 320.883 338.536 321.884 339.708L326.447 335.812C324.834 333.923 322.863 332.486 320.567 331.522L318.244 337.054ZM321.935 339.767C322.959 340.905 323.816 342.392 324.455 344.309L330.147 342.411C329.293 339.848 328.059 337.602 326.395 335.753L321.935 339.767ZM324.46 344.323C325.08 346.152 325.421 348.355 325.421 350.976H331.421C331.421 347.848 331.016 344.973 330.143 342.397L324.46 344.323ZM360.534 333.448L360.971 330.48L359.121 330.208L358.062 331.749L360.534 333.448ZM363.894 334.512L362.472 337.153L362.532 337.186L362.593 337.215L363.894 334.512ZM365.518 336.528H368.518V336.398L368.507 336.268L365.518 336.528ZM365.07 338.376L362.356 337.099L362.356 337.099L365.07 338.376ZM363.894 340.336L361.462 338.58L361.444 338.605L361.426 338.631L363.894 340.336ZM344.518 368.392L344.055 371.356L345.916 371.647L346.987 370.097L344.518 368.392ZM341.494 367.384L339.83 369.88L339.898 369.925L339.968 369.967L341.494 367.384ZM340.206 365.312H337.206V365.442L337.218 365.572L340.206 365.312ZM340.318 363.576L337.37 363.023L337.355 363.101L337.345 363.18L340.318 363.576ZM341.214 361.56L338.742 359.861L338.72 359.893L338.699 359.925L341.214 361.56ZM347.542 348.904L349.589 351.097L349.589 351.097L347.542 348.904ZM334.494 348.904L332.423 351.074L332.435 351.086L332.447 351.097L334.494 348.904ZM334.494 335.856L332.447 333.663L332.435 333.674L332.423 333.686L334.494 335.856ZM347.542 335.856L345.495 338.049L345.495 338.049L347.542 335.856ZM339.422 344.872L337.003 346.646L337.07 346.738L337.144 346.824L339.422 344.872ZM342.614 344.872L340.272 342.998L340.263 343.008L340.255 343.019L342.614 344.872ZM342.614 339.944L340.255 341.797L340.295 341.848L340.336 341.896L342.614 339.944ZM339.422 339.944L337.144 337.992L337.103 338.04L337.063 338.091L339.422 339.944ZM371.006 366.096L373.053 368.289L371.006 366.096ZM357.958 366.096L355.887 368.266L355.899 368.278L355.911 368.289L357.958 366.096ZM357.958 353.048L355.911 350.855L355.899 350.866L355.887 350.878L357.958 353.048ZM371.006 353.048L373.053 350.855L373.053 350.855L371.006 353.048ZM362.886 362.064L360.467 363.838L360.534 363.93L360.608 364.016L362.886 362.064ZM366.078 362.064L363.736 360.19L363.727 360.2L363.719 360.211L366.078 362.064ZM366.078 357.136L363.719 358.989L363.759 359.04L363.8 359.088L366.078 357.136ZM362.886 357.136L360.608 355.184L360.567 355.232L360.527 355.283L362.886 357.136ZM360.098 336.416C361.077 336.56 361.854 336.821 362.472 337.153L365.317 331.871C363.993 331.158 362.53 330.709 360.971 330.48L360.098 336.416ZM362.593 337.215C362.81 337.319 362.799 337.36 362.72 337.262C362.678 337.21 362.63 337.135 362.592 337.039C362.553 336.943 362.535 336.855 362.53 336.788L368.507 336.268C368.313 334.038 366.833 332.597 365.196 331.809L362.593 337.215ZM362.518 336.528C362.518 336.613 362.499 336.794 362.356 337.099L367.785 339.653C368.239 338.688 368.518 337.637 368.518 336.528H362.518ZM362.356 337.099C362.149 337.538 361.858 338.032 361.462 338.58L366.326 342.092C366.901 341.296 367.394 340.483 367.785 339.653L362.356 337.099ZM361.426 338.631L342.05 366.687L346.987 370.097L366.363 342.041L361.426 338.631ZM344.981 365.428C344.066 365.285 343.44 365.049 343.02 364.801L339.968 369.967C341.191 370.689 342.581 371.126 344.055 371.356L344.981 365.428ZM343.158 364.888C343.111 364.856 343.093 364.838 343.094 364.839C343.096 364.841 343.112 364.858 343.132 364.89C343.153 364.923 343.17 364.96 343.182 364.996C343.193 365.032 343.195 365.053 343.195 365.052L337.218 365.572C337.379 367.431 338.369 368.906 339.83 369.88L343.158 364.888ZM343.206 365.312C343.206 364.84 343.236 364.394 343.292 363.972L337.345 363.18C337.251 363.878 337.206 364.59 337.206 365.312H343.206ZM343.267 364.129C343.281 364.053 343.367 363.752 343.73 363.195L338.699 359.925C338.091 360.861 337.579 361.905 337.37 363.023L343.267 364.129ZM343.687 363.259L363.007 335.147L358.062 331.749L338.742 359.861L343.687 363.259ZM347.062 342.352C347.062 344.516 346.438 345.831 345.495 346.711L349.589 351.097C352.007 348.841 353.062 345.788 353.062 342.352H347.062ZM345.495 346.711C344.456 347.681 343.062 348.256 341.046 348.256V354.256C344.332 354.256 347.269 353.263 349.589 351.097L345.495 346.711ZM341.046 348.256C338.98 348.256 337.573 347.673 336.541 346.711L332.447 351.097C334.776 353.271 337.736 354.256 341.046 354.256V348.256ZM336.566 346.734C335.649 345.859 335.03 344.536 335.03 342.352H329.03C329.03 345.768 330.054 348.813 332.423 351.074L336.566 346.734ZM335.03 342.352C335.03 340.219 335.641 338.909 336.566 338.026L332.423 333.686C330.062 335.939 329.03 338.96 329.03 342.352H335.03ZM336.541 338.049C337.573 337.086 338.98 336.504 341.046 336.504V330.504C337.736 330.504 334.776 331.489 332.447 333.663L336.541 338.049ZM341.046 336.504C343.062 336.504 344.456 337.079 345.495 338.049L349.589 333.663C347.269 331.497 344.332 330.504 341.046 330.504V336.504ZM345.495 338.049C346.446 338.937 347.062 340.239 347.062 342.352H353.062C353.062 338.94 351.998 335.911 349.589 333.663L345.495 338.049ZM335.806 342.352C335.806 343.75 336.047 345.342 337.003 346.646L341.841 343.098C341.919 343.203 341.906 343.237 341.874 343.11C341.843 342.98 341.806 342.738 341.806 342.352H335.806ZM337.144 346.824C338.108 347.948 339.455 348.656 341.046 348.656V342.656C341.155 342.656 341.31 342.682 341.468 342.758C341.621 342.832 341.694 342.912 341.7 342.92L337.144 346.824ZM341.046 348.656C342.651 348.656 344.025 347.932 344.973 346.725L340.255 343.019C340.286 342.98 340.387 342.87 340.573 342.777C340.763 342.682 340.939 342.656 341.046 342.656V348.656ZM344.957 346.746C346.011 345.428 346.286 343.793 346.286 342.352H340.286C340.286 342.722 340.248 342.941 340.22 343.049C340.192 343.151 340.187 343.104 340.272 342.998L344.957 346.746ZM346.286 342.352C346.286 340.942 346.009 339.294 344.892 337.992L340.336 341.896C340.222 341.762 340.21 341.678 340.229 341.744C340.249 341.818 340.286 342.007 340.286 342.352H346.286ZM344.973 338.091C344.025 336.884 342.651 336.16 341.046 336.16V342.16C340.939 342.16 340.763 342.134 340.573 342.039C340.387 341.946 340.286 341.836 340.255 341.797L344.973 338.091ZM341.046 336.16C339.455 336.16 338.108 336.868 337.144 337.992L341.7 341.896C341.694 341.904 341.621 341.984 341.468 342.058C341.31 342.134 341.155 342.16 341.046 342.16V336.16ZM337.063 338.091C336.047 339.383 335.806 340.988 335.806 342.352H341.806C341.806 341.989 341.842 341.779 341.867 341.681C341.891 341.588 341.889 341.661 341.781 341.797L337.063 338.091ZM370.526 359.544C370.526 361.708 369.902 363.023 368.959 363.903L373.053 368.289C375.471 366.033 376.526 362.98 376.526 359.544H370.526ZM368.959 363.903C367.92 364.873 366.526 365.448 364.51 365.448V371.448C367.796 371.448 370.733 370.455 373.053 368.289L368.959 363.903ZM364.51 365.448C362.444 365.448 361.037 364.865 360.005 363.903L355.911 368.289C358.24 370.463 361.2 371.448 364.51 371.448V365.448ZM360.03 363.926C359.113 363.051 358.494 361.728 358.494 359.544H352.494C352.494 362.96 353.518 366.005 355.887 368.266L360.03 363.926ZM358.494 359.544C358.494 357.411 359.105 356.101 360.03 355.218L355.887 350.878C353.526 353.131 352.494 356.152 352.494 359.544H358.494ZM360.005 355.241C361.037 354.279 362.444 353.696 364.51 353.696V347.696C361.2 347.696 358.24 348.681 355.911 350.855L360.005 355.241ZM364.51 353.696C366.526 353.696 367.92 354.271 368.959 355.241L373.053 350.855C370.733 348.689 367.796 347.696 364.51 347.696V353.696ZM368.959 355.241C369.91 356.129 370.526 357.431 370.526 359.544H376.526C376.526 356.132 375.462 353.103 373.053 350.855L368.959 355.241ZM359.27 359.544C359.27 360.942 359.511 362.534 360.467 363.838L365.305 360.29C365.383 360.395 365.37 360.429 365.338 360.302C365.307 360.172 365.27 359.93 365.27 359.544H359.27ZM360.608 364.016C361.572 365.14 362.919 365.848 364.51 365.848V359.848C364.619 359.848 364.774 359.874 364.932 359.95C365.085 360.024 365.158 360.104 365.164 360.112L360.608 364.016ZM364.51 365.848C366.115 365.848 367.489 365.124 368.437 363.917L363.719 360.211C363.75 360.172 363.851 360.062 364.037 359.969C364.227 359.874 364.403 359.848 364.51 359.848V365.848ZM368.421 363.938C369.475 362.62 369.75 360.985 369.75 359.544H363.75C363.75 359.914 363.712 360.133 363.684 360.241C363.656 360.343 363.651 360.296 363.736 360.19L368.421 363.938ZM369.75 359.544C369.75 358.134 369.473 356.486 368.356 355.184L363.8 359.088C363.686 358.954 363.674 358.87 363.693 358.936C363.713 359.01 363.75 359.199 363.75 359.544H369.75ZM368.437 355.283C367.489 354.076 366.115 353.352 364.51 353.352V359.352C364.403 359.352 364.227 359.326 364.037 359.231C363.851 359.138 363.75 359.028 363.719 358.989L368.437 355.283ZM364.51 353.352C362.919 353.352 361.572 354.06 360.608 355.184L365.164 359.088C365.158 359.096 365.085 359.176 364.932 359.25C364.774 359.326 364.619 359.352 364.51 359.352V353.352ZM360.527 355.283C359.511 356.575 359.27 358.18 359.27 359.544H365.27C365.27 359.181 365.306 358.971 365.331 358.874C365.355 358.78 365.353 358.853 365.245 358.989L360.527 355.283Z" fill="black" mask="url(#path-10-outside-9_2099_360)"/>
<path d="M80.595 159.572C83.355 159.572 85.455 160.148 86.895 161.3C88.335 162.428 89.055 163.952 89.055 165.872C89.055 167.024 88.743 168.008 88.119 168.824C87.519 169.616 86.799 170.216 85.959 170.624C86.463 170.816 86.931 171.056 87.363 171.344C87.795 171.632 88.179 171.992 88.515 172.424C88.851 172.856 89.115 173.36 89.307 173.936C89.499 174.512 89.595 175.184 89.595 175.952C89.595 176.984 89.367 177.908 88.911 178.724C88.479 179.54 87.867 180.236 87.075 180.812C86.283 181.388 85.335 181.82 84.231 182.108C83.151 182.42 81.963 182.576 80.667 182.576C78.171 182.576 76.287 182.228 75.015 181.532C73.743 180.836 73.107 179.948 73.107 178.868C73.107 178.22 73.263 177.668 73.575 177.212C73.887 176.732 74.271 176.36 74.727 176.096C75.207 176.432 75.843 176.792 76.635 177.176C77.451 177.536 78.507 177.716 79.803 177.716C81.027 177.716 81.927 177.5 82.503 177.068C83.103 176.636 83.403 176.072 83.403 175.376C83.403 174.68 83.163 174.152 82.683 173.792C82.227 173.432 81.423 173.252 80.271 173.252H76.887C76.719 172.988 76.575 172.664 76.455 172.28C76.335 171.896 76.275 171.44 76.275 170.912C76.275 170.36 76.323 169.892 76.419 169.508C76.539 169.1 76.695 168.764 76.887 168.5H80.271C81.999 168.5 82.863 167.84 82.863 166.52C82.863 165.896 82.587 165.392 82.035 165.008C81.483 164.624 80.655 164.432 79.551 164.432C78.567 164.432 77.703 164.552 76.959 164.792C76.215 165.008 75.603 165.284 75.123 165.62C74.715 165.332 74.379 164.984 74.115 164.576C73.851 164.144 73.719 163.64 73.719 163.064C73.719 161.864 74.343 160.988 75.591 160.436C76.839 159.86 78.507 159.572 80.595 159.572ZM105.24 171.056C105.24 168.944 104.928 167.312 104.304 166.16C103.704 165.008 102.84 164.432 101.712 164.432C100.584 164.432 99.7198 165.008 99.1198 166.16C98.5438 167.312 98.2558 168.944 98.2558 171.056C98.2558 173.168 98.5438 174.812 99.1198 175.988C99.7198 177.14 100.584 177.716 101.712 177.716C102.84 177.716 103.704 177.14 104.304 175.988C104.928 174.812 105.24 173.168 105.24 171.056ZM111.396 171.056C111.396 172.904 111.156 174.548 110.676 175.988C110.196 177.428 109.524 178.64 108.66 179.624C107.82 180.584 106.8 181.316 105.6 181.82C104.424 182.324 103.14 182.576 101.748 182.576C100.332 182.576 99.0238 182.324 97.8238 181.82C96.6478 181.316 95.6278 180.584 94.7638 179.624C93.9238 178.64 93.2638 177.428 92.7838 175.988C92.3278 174.548 92.0998 172.904 92.0998 171.056C92.0998 169.208 92.3278 167.576 92.7838 166.16C93.2638 164.72 93.9238 163.52 94.7638 162.56C95.6278 161.576 96.6478 160.832 97.8238 160.328C99.0238 159.824 100.332 159.572 101.748 159.572C103.14 159.572 104.424 159.824 105.6 160.328C106.8 160.832 107.82 161.576 108.66 162.56C109.524 163.52 110.196 164.72 110.676 166.16C111.156 167.576 111.396 169.208 111.396 171.056ZM132.04 159.788C132.856 159.908 133.576 160.136 134.2 160.472C134.848 160.784 135.196 161.216 135.244 161.768C135.244 162.152 135.148 162.548 134.956 162.956C134.764 163.364 134.512 163.784 134.2 164.216L121.744 182.252C120.976 182.132 120.328 181.916 119.8 181.604C119.296 181.268 119.02 180.824 118.972 180.272C118.972 179.888 118.996 179.516 119.044 179.156C119.116 178.772 119.308 178.34 119.62 177.86L132.04 159.788ZM125.308 165.512C125.308 167.312 124.768 168.716 123.688 169.724C122.608 170.732 121.216 171.236 119.512 171.236C117.784 171.236 116.38 170.732 115.3 169.724C114.244 168.716 113.716 167.312 113.716 165.512C113.716 163.736 114.244 162.344 115.3 161.336C116.38 160.328 117.784 159.824 119.512 159.824C121.216 159.824 122.608 160.328 123.688 161.336C124.768 162.344 125.308 163.736 125.308 165.512ZM118.072 165.512C118.072 166.232 118.204 166.772 118.468 167.132C118.756 167.468 119.104 167.636 119.512 167.636C119.92 167.636 120.256 167.468 120.52 167.132C120.808 166.772 120.952 166.232 120.952 165.512C120.952 164.816 120.808 164.3 120.52 163.964C120.256 163.628 119.92 163.46 119.512 163.46C119.104 163.46 118.756 163.628 118.468 163.964C118.204 164.3 118.072 164.816 118.072 165.512ZM140.392 176.564C140.392 178.364 139.852 179.768 138.772 180.776C137.692 181.784 136.3 182.288 134.596 182.288C132.868 182.288 131.464 181.784 130.384 180.776C129.328 179.768 128.8 178.364 128.8 176.564C128.8 174.788 129.328 173.396 130.384 172.388C131.464 171.38 132.868 170.876 134.596 170.876C136.3 170.876 137.692 171.38 138.772 172.388C139.852 173.396 140.392 174.788 140.392 176.564ZM133.156 176.564C133.156 177.284 133.288 177.824 133.552 178.184C133.84 178.52 134.188 178.688 134.596 178.688C135.004 178.688 135.34 178.52 135.604 178.184C135.892 177.824 136.036 177.284 136.036 176.564C136.036 175.868 135.892 175.352 135.604 175.016C135.34 174.68 135.004 174.512 134.596 174.512C134.188 174.512 133.84 174.68 133.552 175.016C133.288 175.352 133.156 175.868 133.156 176.564Z" fill="black"/>
<path d="M115.58 484.944L111.98 486.06C111.62 485.82 111.26 485.484 110.9 485.052C110.54 484.62 110.36 484.02 110.36 483.252C110.36 481.812 111.236 480.804 112.988 480.228L117.02 478.86H118.352C119.384 478.86 120.2 479.16 120.8 479.76C121.4 480.36 121.7 481.176 121.7 482.208V500.964C121.436 501.012 121.04 501.072 120.512 501.144C120.008 501.24 119.492 501.288 118.964 501.288C118.436 501.288 117.956 501.252 117.524 501.18C117.116 501.108 116.768 500.964 116.48 500.748C116.192 500.532 115.964 500.244 115.796 499.884C115.652 499.5 115.58 499.008 115.58 498.408V484.944ZM125.933 485.016C125.933 484.056 126.137 483.18 126.545 482.388C126.953 481.596 127.517 480.912 128.237 480.336C128.957 479.76 129.821 479.316 130.829 479.004C131.837 478.692 132.941 478.536 134.141 478.536C135.341 478.536 136.445 478.68 137.453 478.968C138.461 479.256 139.325 479.664 140.045 480.192C140.765 480.72 141.329 481.368 141.737 482.136C142.145 482.904 142.349 483.768 142.349 484.728C142.349 485.784 142.133 486.708 141.701 487.5C141.269 488.292 140.669 488.952 139.901 489.48C140.813 490.104 141.557 490.848 142.133 491.712C142.709 492.552 142.997 493.692 142.997 495.132C142.997 496.092 142.793 496.968 142.385 497.76C141.977 498.552 141.389 499.236 140.621 499.812C139.853 500.388 138.929 500.832 137.849 501.144C136.769 501.456 135.557 501.612 134.213 501.612C132.869 501.612 131.657 501.456 130.577 501.144C129.497 500.832 128.573 500.388 127.805 499.812C127.061 499.236 126.473 498.552 126.041 497.76C125.633 496.968 125.429 496.092 125.429 495.132C125.429 493.836 125.705 492.756 126.257 491.892C126.833 491.028 127.505 490.356 128.273 489.876C127.625 489.348 127.073 488.724 126.617 488.004C126.161 487.26 125.933 486.264 125.933 485.016ZM131.585 494.592C131.585 495.336 131.825 495.924 132.305 496.356C132.809 496.788 133.445 497.004 134.213 497.004C134.981 497.004 135.605 496.788 136.085 496.356C136.589 495.9 136.841 495.312 136.841 494.592C136.841 493.896 136.625 493.32 136.193 492.864C135.785 492.384 135.221 492.012 134.501 491.748C133.445 491.988 132.689 492.36 132.233 492.864C131.801 493.344 131.585 493.92 131.585 494.592ZM136.337 485.232C136.337 484.584 136.145 484.068 135.761 483.684C135.377 483.3 134.837 483.108 134.141 483.108C133.445 483.108 132.905 483.3 132.521 483.684C132.137 484.068 131.945 484.572 131.945 485.196C131.945 485.82 132.137 486.324 132.521 486.708C132.929 487.092 133.397 487.404 133.925 487.644C134.765 487.452 135.377 487.14 135.761 486.708C136.145 486.276 136.337 485.784 136.337 485.232ZM163.645 478.788C164.461 478.908 165.181 479.136 165.805 479.472C166.453 479.784 166.801 480.216 166.849 480.768C166.849 481.152 166.753 481.548 166.561 481.956C166.369 482.364 166.117 482.784 165.805 483.216L153.349 501.252C152.581 501.132 151.933 500.916 151.405 500.604C150.901 500.268 150.625 499.824 150.577 499.272C150.577 498.888 150.601 498.516 150.649 498.156C150.721 497.772 150.913 497.34 151.225 496.86L163.645 478.788ZM156.913 484.512C156.913 486.312 156.373 487.716 155.293 488.724C154.213 489.732 152.821 490.236 151.117 490.236C149.389 490.236 147.985 489.732 146.905 488.724C145.849 487.716 145.321 486.312 145.321 484.512C145.321 482.736 145.849 481.344 146.905 480.336C147.985 479.328 149.389 478.824 151.117 478.824C152.821 478.824 154.213 479.328 155.293 480.336C156.373 481.344 156.913 482.736 156.913 484.512ZM149.677 484.512C149.677 485.232 149.809 485.772 150.073 486.132C150.361 486.468 150.709 486.636 151.117 486.636C151.525 486.636 151.861 486.468 152.125 486.132C152.413 485.772 152.557 485.232 152.557 484.512C152.557 483.816 152.413 483.3 152.125 482.964C151.861 482.628 151.525 482.46 151.117 482.46C150.709 482.46 150.361 482.628 150.073 482.964C149.809 483.3 149.677 483.816 149.677 484.512ZM171.997 495.564C171.997 497.364 171.457 498.768 170.377 499.776C169.297 500.784 167.905 501.288 166.201 501.288C164.473 501.288 163.069 500.784 161.989 499.776C160.933 498.768 160.405 497.364 160.405 495.564C160.405 493.788 160.933 492.396 161.989 491.388C163.069 490.38 164.473 489.876 166.201 489.876C167.905 489.876 169.297 490.38 170.377 491.388C171.457 492.396 171.997 493.788 171.997 495.564ZM164.761 495.564C164.761 496.284 164.893 496.824 165.157 497.184C165.445 497.52 165.793 497.688 166.201 497.688C166.609 497.688 166.945 497.52 167.209 497.184C167.497 496.824 167.641 496.284 167.641 495.564C167.641 494.868 167.497 494.352 167.209 494.016C166.945 493.68 166.609 493.512 166.201 493.512C165.793 493.512 165.445 493.68 165.157 494.016C164.893 494.352 164.761 494.868 164.761 495.564Z" fill="black"/>
<path d="M400.58 509.944L396.98 511.06C396.62 510.82 396.26 510.484 395.9 510.052C395.54 509.62 395.36 509.02 395.36 508.252C395.36 506.812 396.236 505.804 397.988 505.228L402.02 503.86H403.352C404.384 503.86 405.2 504.16 405.8 504.76C406.4 505.36 406.7 506.176 406.7 507.208V525.964C406.436 526.012 406.04 526.072 405.512 526.144C405.008 526.24 404.492 526.288 403.964 526.288C403.436 526.288 402.956 526.252 402.524 526.18C402.116 526.108 401.768 525.964 401.48 525.748C401.192 525.532 400.964 525.244 400.796 524.884C400.652 524.5 400.58 524.008 400.58 523.408V509.944ZM416.765 521.752C418.301 521.752 419.525 521.356 420.437 520.564C421.373 519.772 421.841 518.68 421.841 517.288C421.577 517.504 421.085 517.756 420.365 518.044C419.669 518.332 418.769 518.476 417.665 518.476C416.561 518.476 415.553 518.32 414.641 518.008C413.753 517.696 412.985 517.24 412.337 516.64C411.689 516.016 411.185 515.26 410.825 514.372C410.465 513.484 410.285 512.452 410.285 511.276C410.285 510.244 410.465 509.272 410.825 508.36C411.185 507.424 411.725 506.608 412.445 505.912C413.165 505.192 414.053 504.628 415.109 504.22C416.189 503.788 417.437 503.572 418.853 503.572C421.685 503.572 423.905 504.52 425.513 506.416C427.145 508.312 427.961 511.012 427.961 514.516C427.961 516.508 427.709 518.26 427.205 519.772C426.701 521.284 425.993 522.544 425.081 523.552C424.193 524.56 423.125 525.316 421.877 525.82C420.629 526.324 419.249 526.576 417.737 526.576C415.817 526.576 414.317 526.312 413.237 525.784C412.157 525.256 411.617 524.452 411.617 523.372C411.617 522.868 411.725 522.388 411.941 521.932C412.181 521.452 412.457 521.092 412.769 520.852C413.417 521.14 414.089 521.368 414.785 521.536C415.505 521.68 416.165 521.752 416.765 521.752ZM419.069 513.868C419.525 513.868 419.981 513.772 420.437 513.58C420.917 513.388 421.313 513.124 421.625 512.788V512.356C421.601 510.988 421.361 509.992 420.905 509.368C420.449 508.744 419.777 508.432 418.889 508.432C418.097 508.432 417.473 508.684 417.017 509.188C416.585 509.668 416.369 510.328 416.369 511.168C416.369 511.984 416.621 512.644 417.125 513.148C417.629 513.628 418.277 513.868 419.069 513.868ZM448.575 503.788C449.391 503.908 450.111 504.136 450.735 504.472C451.383 504.784 451.731 505.216 451.779 505.768C451.779 506.152 451.683 506.548 451.491 506.956C451.299 507.364 451.047 507.784 450.735 508.216L438.279 526.252C437.511 526.132 436.863 525.916 436.335 525.604C435.831 525.268 435.555 524.824 435.507 524.272C435.507 523.888 435.531 523.516 435.579 523.156C435.651 522.772 435.843 522.34 436.155 521.86L448.575 503.788ZM441.843 509.512C441.843 511.312 441.303 512.716 440.223 513.724C439.143 514.732 437.751 515.236 436.047 515.236C434.319 515.236 432.915 514.732 431.835 513.724C430.779 512.716 430.251 511.312 430.251 509.512C430.251 507.736 430.779 506.344 431.835 505.336C432.915 504.328 434.319 503.824 436.047 503.824C437.751 503.824 439.143 504.328 440.223 505.336C441.303 506.344 441.843 507.736 441.843 509.512ZM434.607 509.512C434.607 510.232 434.739 510.772 435.003 511.132C435.291 511.468 435.639 511.636 436.047 511.636C436.455 511.636 436.791 511.468 437.055 511.132C437.343 510.772 437.487 510.232 437.487 509.512C437.487 508.816 437.343 508.3 437.055 507.964C436.791 507.628 436.455 507.46 436.047 507.46C435.639 507.46 435.291 507.628 435.003 507.964C434.739 508.3 434.607 508.816 434.607 509.512ZM456.927 520.564C456.927 522.364 456.387 523.768 455.307 524.776C454.227 525.784 452.835 526.288 451.131 526.288C449.403 526.288 447.999 525.784 446.919 524.776C445.863 523.768 445.335 522.364 445.335 520.564C445.335 518.788 445.863 517.396 446.919 516.388C447.999 515.38 449.403 514.876 451.131 514.876C452.835 514.876 454.227 515.38 455.307 516.388C456.387 517.396 456.927 518.788 456.927 520.564ZM449.691 520.564C449.691 521.284 449.823 521.824 450.087 522.184C450.375 522.52 450.723 522.688 451.131 522.688C451.539 522.688 451.875 522.52 452.139 522.184C452.427 521.824 452.571 521.284 452.571 520.564C452.571 519.868 452.427 519.352 452.139 519.016C451.875 518.68 451.539 518.512 451.131 518.512C450.723 518.512 450.375 518.68 450.087 519.016C449.823 519.352 449.691 519.868 449.691 520.564Z" fill="black"/>
<path d="M511.58 343.944L507.98 345.06C507.62 344.82 507.26 344.484 506.9 344.052C506.54 343.62 506.36 343.02 506.36 342.252C506.36 340.812 507.236 339.804 508.988 339.228L513.02 337.86H514.352C515.384 337.86 516.2 338.16 516.8 338.76C517.4 339.36 517.7 340.176 517.7 341.208V359.964C517.436 360.012 517.04 360.072 516.512 360.144C516.008 360.24 515.492 360.288 514.964 360.288C514.436 360.288 513.956 360.252 513.524 360.18C513.116 360.108 512.768 359.964 512.48 359.748C512.192 359.532 511.964 359.244 511.796 358.884C511.652 358.5 511.58 358.008 511.58 357.408V343.944ZM534.533 349.056C534.533 346.944 534.221 345.312 533.597 344.16C532.997 343.008 532.133 342.432 531.005 342.432C529.877 342.432 529.013 343.008 528.413 344.16C527.837 345.312 527.549 346.944 527.549 349.056C527.549 351.168 527.837 352.812 528.413 353.988C529.013 355.14 529.877 355.716 531.005 355.716C532.133 355.716 532.997 355.14 533.597 353.988C534.221 352.812 534.533 351.168 534.533 349.056ZM540.689 349.056C540.689 350.904 540.449 352.548 539.969 353.988C539.489 355.428 538.817 356.64 537.953 357.624C537.113 358.584 536.093 359.316 534.893 359.82C533.717 360.324 532.433 360.576 531.041 360.576C529.625 360.576 528.317 360.324 527.117 359.82C525.941 359.316 524.921 358.584 524.057 357.624C523.217 356.64 522.557 355.428 522.077 353.988C521.621 352.548 521.393 350.904 521.393 349.056C521.393 347.208 521.621 345.576 522.077 344.16C522.557 342.72 523.217 341.52 524.057 340.56C524.921 339.576 525.941 338.832 527.117 338.328C528.317 337.824 529.625 337.572 531.041 337.572C532.433 337.572 533.717 337.824 534.893 338.328C536.093 338.832 537.113 339.576 537.953 340.56C538.817 341.52 539.489 342.72 539.969 344.16C540.449 345.576 540.689 347.208 540.689 349.056ZM561.333 337.788C562.149 337.908 562.869 338.136 563.493 338.472C564.141 338.784 564.489 339.216 564.537 339.768C564.537 340.152 564.441 340.548 564.249 340.956C564.057 341.364 563.805 341.784 563.493 342.216L551.037 360.252C550.269 360.132 549.621 359.916 549.093 359.604C548.589 359.268 548.313 358.824 548.265 358.272C548.265 357.888 548.289 357.516 548.337 357.156C548.409 356.772 548.601 356.34 548.913 355.86L561.333 337.788ZM554.601 343.512C554.601 345.312 554.061 346.716 552.981 347.724C551.901 348.732 550.509 349.236 548.805 349.236C547.077 349.236 545.673 348.732 544.593 347.724C543.537 346.716 543.009 345.312 543.009 343.512C543.009 341.736 543.537 340.344 544.593 339.336C545.673 338.328 547.077 337.824 548.805 337.824C550.509 337.824 551.901 338.328 552.981 339.336C554.061 340.344 554.601 341.736 554.601 343.512ZM547.365 343.512C547.365 344.232 547.497 344.772 547.761 345.132C548.049 345.468 548.397 345.636 548.805 345.636C549.213 345.636 549.549 345.468 549.813 345.132C550.101 344.772 550.245 344.232 550.245 343.512C550.245 342.816 550.101 342.3 549.813 341.964C549.549 341.628 549.213 341.46 548.805 341.46C548.397 341.46 548.049 341.628 547.761 341.964C547.497 342.3 547.365 342.816 547.365 343.512ZM569.685 354.564C569.685 356.364 569.145 357.768 568.065 358.776C566.985 359.784 565.593 360.288 563.889 360.288C562.161 360.288 560.757 359.784 559.677 358.776C558.621 357.768 558.093 356.364 558.093 354.564C558.093 352.788 558.621 351.396 559.677 350.388C560.757 349.38 562.161 348.876 563.889 348.876C565.593 348.876 566.985 349.38 568.065 350.388C569.145 351.396 569.685 352.788 569.685 354.564ZM562.449 354.564C562.449 355.284 562.581 355.824 562.845 356.184C563.133 356.52 563.481 356.688 563.889 356.688C564.297 356.688 564.633 356.52 564.897 356.184C565.185 355.824 565.329 355.284 565.329 354.564C565.329 353.868 565.185 353.352 564.897 353.016C564.633 352.68 564.297 352.512 563.889 352.512C563.481 352.512 563.133 352.68 562.845 353.016C562.581 353.352 562.449 353.868 562.449 354.564Z" fill="black"/>
<path d="M496.58 190.944L492.98 192.06C492.62 191.82 492.26 191.484 491.9 191.052C491.54 190.62 491.36 190.02 491.36 189.252C491.36 187.812 492.236 186.804 493.988 186.228L498.02 184.86H499.352C500.384 184.86 501.2 185.16 501.8 185.76C502.4 186.36 502.7 187.176 502.7 188.208V206.964C502.436 207.012 502.04 207.072 501.512 207.144C501.008 207.24 500.492 207.288 499.964 207.288C499.436 207.288 498.956 207.252 498.524 207.18C498.116 207.108 497.768 206.964 497.48 206.748C497.192 206.532 496.964 206.244 496.796 205.884C496.652 205.5 496.58 205.008 496.58 204.408V190.944ZM514.16 184.572C515.528 184.572 516.74 184.752 517.796 185.112C518.852 185.448 519.752 185.916 520.496 186.516C521.24 187.116 521.804 187.824 522.188 188.64C522.572 189.456 522.764 190.332 522.764 191.268C522.764 193.788 521.336 196.188 518.48 198.468L513.764 202.248H522.404C522.548 202.512 522.68 202.848 522.8 203.256C522.944 203.664 523.016 204.108 523.016 204.588C523.016 205.452 522.824 206.076 522.44 206.46C522.056 206.82 521.552 207 520.928 207H508.436C507.908 206.64 507.488 206.184 507.176 205.632C506.888 205.056 506.744 204.384 506.744 203.616C506.744 202.8 506.912 202.116 507.248 201.564C507.584 200.988 507.956 200.532 508.364 200.196L513.332 195.948C513.956 195.42 514.472 194.952 514.88 194.544C515.288 194.112 515.612 193.728 515.852 193.392C516.116 193.056 516.296 192.744 516.392 192.456C516.512 192.168 516.572 191.892 516.572 191.628C516.572 190.956 516.272 190.428 515.672 190.044C515.096 189.66 514.376 189.468 513.512 189.468C512.552 189.468 511.688 189.624 510.92 189.936C510.176 190.224 509.552 190.536 509.048 190.872C508.64 190.584 508.304 190.224 508.04 189.792C507.776 189.36 507.644 188.856 507.644 188.28C507.644 187.032 508.232 186.108 509.408 185.508C510.584 184.884 512.168 184.572 514.16 184.572ZM543.661 184.788C544.477 184.908 545.197 185.136 545.821 185.472C546.469 185.784 546.817 186.216 546.865 186.768C546.865 187.152 546.769 187.548 546.577 187.956C546.385 188.364 546.133 188.784 545.821 189.216L533.365 207.252C532.597 207.132 531.949 206.916 531.421 206.604C530.917 206.268 530.641 205.824 530.593 205.272C530.593 204.888 530.617 204.516 530.665 204.156C530.737 203.772 530.929 203.34 531.241 202.86L543.661 184.788ZM536.929 190.512C536.929 192.312 536.389 193.716 535.309 194.724C534.229 195.732 532.837 196.236 531.133 196.236C529.405 196.236 528.001 195.732 526.921 194.724C525.865 193.716 525.337 192.312 525.337 190.512C525.337 188.736 525.865 187.344 526.921 186.336C528.001 185.328 529.405 184.824 531.133 184.824C532.837 184.824 534.229 185.328 535.309 186.336C536.389 187.344 536.929 188.736 536.929 190.512ZM529.693 190.512C529.693 191.232 529.825 191.772 530.089 192.132C530.377 192.468 530.725 192.636 531.133 192.636C531.541 192.636 531.877 192.468 532.141 192.132C532.429 191.772 532.573 191.232 532.573 190.512C532.573 189.816 532.429 189.3 532.141 188.964C531.877 188.628 531.541 188.46 531.133 188.46C530.725 188.46 530.377 188.628 530.089 188.964C529.825 189.3 529.693 189.816 529.693 190.512ZM552.013 201.564C552.013 203.364 551.473 204.768 550.393 205.776C549.313 206.784 547.921 207.288 546.217 207.288C544.489 207.288 543.085 206.784 542.005 205.776C540.949 204.768 540.421 203.364 540.421 201.564C540.421 199.788 540.949 198.396 542.005 197.388C543.085 196.38 544.489 195.876 546.217 195.876C547.921 195.876 549.313 196.38 550.393 197.388C551.473 198.396 552.013 199.788 552.013 201.564ZM544.777 201.564C544.777 202.284 544.909 202.824 545.173 203.184C545.461 203.52 545.809 203.688 546.217 203.688C546.625 203.688 546.961 203.52 547.225 203.184C547.513 202.824 547.657 202.284 547.657 201.564C547.657 200.868 547.513 200.352 547.225 200.016C546.961 199.68 546.625 199.512 546.217 199.512C545.809 199.512 545.461 199.68 545.173 200.016C544.909 200.352 544.777 200.868 544.777 201.564Z" fill="black"/>
<path d="M358.58 70.944L354.98 72.06C354.62 71.82 354.26 71.484 353.9 71.052C353.54 70.62 353.36 70.02 353.36 69.252C353.36 67.812 354.236 66.804 355.988 66.228L360.02 64.86H361.352C362.384 64.86 363.2 65.16 363.8 65.76C364.4 66.36 364.7 67.176 364.7 68.208V86.964C364.436 87.012 364.04 87.072 363.512 87.144C363.008 87.24 362.492 87.288 361.964 87.288C361.436 87.288 360.956 87.252 360.524 87.18C360.116 87.108 359.768 86.964 359.48 86.748C359.192 86.532 358.964 86.244 358.796 85.884C358.652 85.5 358.58 85.008 358.58 84.408V70.944ZM372.713 70.944L369.113 72.06C368.753 71.82 368.393 71.484 368.033 71.052C367.673 70.62 367.493 70.02 367.493 69.252C367.493 67.812 368.369 66.804 370.121 66.228L374.153 64.86H375.485C376.517 64.86 377.333 65.16 377.933 65.76C378.533 66.36 378.833 67.176 378.833 68.208V86.964C378.569 87.012 378.173 87.072 377.645 87.144C377.141 87.24 376.625 87.288 376.097 87.288C375.569 87.288 375.089 87.252 374.657 87.18C374.249 87.108 373.901 86.964 373.613 86.748C373.325 86.532 373.097 86.244 372.929 85.884C372.785 85.5 372.713 85.008 372.713 84.408V70.944ZM400.634 64.788C401.45 64.908 402.17 65.136 402.794 65.472C403.442 65.784 403.79 66.216 403.838 66.768C403.838 67.152 403.742 67.548 403.55 67.956C403.358 68.364 403.106 68.784 402.794 69.216L390.338 87.252C389.57 87.132 388.922 86.916 388.394 86.604C387.89 86.268 387.614 85.824 387.566 85.272C387.566 84.888 387.59 84.516 387.638 84.156C387.71 83.772 387.902 83.34 388.214 82.86L400.634 64.788ZM393.902 70.512C393.902 72.312 393.362 73.716 392.282 74.724C391.202 75.732 389.81 76.236 388.106 76.236C386.378 76.236 384.974 75.732 383.894 74.724C382.838 73.716 382.31 72.312 382.31 70.512C382.31 68.736 382.838 67.344 383.894 66.336C384.974 65.328 386.378 64.824 388.106 64.824C389.81 64.824 391.202 65.328 392.282 66.336C393.362 67.344 393.902 68.736 393.902 70.512ZM386.666 70.512C386.666 71.232 386.798 71.772 387.062 72.132C387.35 72.468 387.698 72.636 388.106 72.636C388.514 72.636 388.85 72.468 389.114 72.132C389.402 71.772 389.546 71.232 389.546 70.512C389.546 69.816 389.402 69.3 389.114 68.964C388.85 68.628 388.514 68.46 388.106 68.46C387.698 68.46 387.35 68.628 387.062 68.964C386.798 69.3 386.666 69.816 386.666 70.512ZM408.986 81.564C408.986 83.364 408.446 84.768 407.366 85.776C406.286 86.784 404.894 87.288 403.19 87.288C401.462 87.288 400.058 86.784 398.978 85.776C397.922 84.768 397.394 83.364 397.394 81.564C397.394 79.788 397.922 78.396 398.978 77.388C400.058 76.38 401.462 75.876 403.19 75.876C404.894 75.876 406.286 76.38 407.366 77.388C408.446 78.396 408.986 79.788 408.986 81.564ZM401.75 81.564C401.75 82.284 401.882 82.824 402.146 83.184C402.434 83.52 402.782 83.688 403.19 83.688C403.598 83.688 403.934 83.52 404.198 83.184C404.486 82.824 404.63 82.284 404.63 81.564C404.63 80.868 404.486 80.352 404.198 80.016C403.934 79.68 403.598 79.512 403.19 79.512C402.782 79.512 402.434 79.68 402.146 80.016C401.882 80.352 401.75 80.868 401.75 81.564Z" fill="black"/>
</svg>
