<svg width="89" height="89" viewBox="0 0 89 89" fill="none" xmlns="http://www.w3.org/2000/svg">
<path d="M63.3193 36.9539L59.2645 39.0154L59.0878 39.1067L53.5256 41.9318" fill="black"/>
<g clip-path="url(#clip0_2056_103)">
<path d="M44.5 89C69.0767 89 89 69.0767 89 44.5C89 19.9233 69.0767 0 44.5 0C19.9233 0 0 19.9233 0 44.5C0 69.0767 19.9233 89 44.5 89Z" fill="#FDEAF1"/>
<path d="M32.3885 35.6545C32.3885 34.1513 31.1699 32.9327 29.6668 32.9327C28.1636 32.9327 26.9451 34.1513 26.9451 35.6545V45.4526C26.9451 46.9558 28.1636 48.1743 29.6668 48.1743C31.1699 48.1743 32.3885 46.9558 32.3885 45.4526V35.6545Z" fill="#F95192"/>
<path d="M35.0684 31.0605C35.7517 31.2363 36.4482 30.8249 36.624 30.1416C36.7999 29.4582 36.3884 28.7618 35.7051 28.586L25.6649 26.0027C24.9816 25.8268 24.2852 26.2383 24.1093 26.9216C23.9335 27.6049 24.3449 28.3014 25.0283 28.4772L35.0684 31.0605Z" fill="#F95192"/>
<path d="M47.9382 60.2399C49.1096 60.0834 50.115 61.1095 49.8918 62.27C49.759 62.9603 49.2133 63.5 48.5192 63.6121C38.7276 65.1923 33.2537 63.7466 26.8478 57.945C26.2555 57.4085 26.1201 56.5329 26.5007 55.8302C27.0636 54.791 28.4646 54.5869 29.3448 55.3754C34.6973 60.1713 39.0229 61.4306 47.9382 60.2399Z" fill="#F95192"/>
<path d="M58.7351 28.6303C59.4233 28.4747 59.855 27.7907 59.6995 27.1024C59.5439 26.4142 58.8598 25.9825 58.1716 26.1381L48.0596 28.4242C47.3714 28.5798 46.9397 29.2639 47.0953 29.9521C47.2509 30.6403 47.9349 31.0721 48.6231 30.9165L58.7351 28.6303Z" fill="#F95192"/>
<path d="M56.8839 35.6545C56.8839 34.1513 55.6653 32.9327 54.1621 32.9327C52.659 32.9327 51.4404 34.1513 51.4404 35.6545V45.4526C51.4404 46.9558 52.659 48.1743 54.1621 48.1743C55.6653 48.1743 56.8839 46.9558 56.8839 45.4526V35.6545Z" fill="#F95192"/>
<path d="M17.6911 51.9847C21.1484 51.9847 23.951 49.1821 23.951 45.7248C23.951 42.2675 21.1484 39.4648 17.6911 39.4648C14.2338 39.4648 11.4312 42.2675 11.4312 45.7248C11.4312 49.1821 14.2338 51.9847 17.6911 51.9847Z" fill="#F95192"/>
<path d="M66.1376 51.9847C69.5949 51.9847 72.3976 49.1821 72.3976 45.7248C72.3976 42.2675 69.5949 39.4648 66.1376 39.4648C62.6804 39.4648 59.8777 42.2675 59.8777 45.7248C59.8777 49.1821 62.6804 51.9847 66.1376 51.9847Z" fill="#F95192"/>
<path d="M70.0841 21.7737L72.1055 27.7334L77.5688 29.9388L72.1055 32.1442L70.0841 38.104L68.0627 32.1442L62.5994 29.9388L68.0627 27.7334L70.0841 21.7737Z" fill="#F95192"/>
</g>
<defs>
<clipPath id="clip0_2056_103">
<rect width="89" height="89" fill="white"/>
</clipPath>
</defs>
</svg>
